<svg xmlns="http://www.w3.org/2000/svg" xmlns:xlink="http://www.w3.org/1999/xlink" viewBox="0 0 750 500" style="enable-background:new 0 0 750 500" xml:space="preserve"><defs><path id="a" d="M0 0h750v500H0z"/></defs><clipPath id="b"><use xlink:href="#a" style="overflow:visible"/></clipPath><g style="clip-path:url(#b)"><path class="st1" d="M497.5 576.4c3-23.8 3.8-48.1-.5-71.8-4.1-22.6-13.3-43.8-28.3-61.2-13.8-16-31.4-28.3-49.9-38.2-19.1-10.2-39.4-18-59.8-25.2-24.8-8.8-50.3-18-76.9-18.3-10.7-.1-21.5 1.1-31.3 5.7-8 3.8-15.5 10-17.9 18.8-2.6 9.8 1.8 19.5 8.9 26.2 8.6 8.1 20.3 10.9 31.8 11.9 12.4 1.1 25 .4 37.2 3.2 5.9 1.3 11.7 3.5 16.7 6.9 4.4 3 8.1 6.8 11.2 11.1 6.1 8.6 9.7 18.7 12.8 28.6 3.5 11.4 6.8 22.8 11 34 8.8 23.6 20 46.3 33.5 67.6 3.3 5.2 6.7 10.3 10.2 15.3.3.4.9 0 .6-.4-14.4-20.4-26.7-42.3-36.6-65.3-5-11.5-9.4-23.3-13.1-35.3-3.2-10.1-5.8-20.5-9.9-30.3-3.8-9.1-8.9-17.8-16.6-24-8.9-7.2-20.1-9.7-31.3-10.7-12.5-1.1-25.3-.4-37.6-3.3-10.8-2.6-21.1-8.6-26.3-18.9-2.4-4.7-3.3-10-2.2-15.1.9-4.5 3.3-8.6 6.5-11.9 6.7-6.8 16.2-10.6 25.4-12.2 12.6-2.2 25.9-1.2 38.4.9 13.1 2.3 25.9 6.2 38.5 10.4 21.1 7.1 42.3 14.7 62.5 24.1 19.1 8.9 37.6 19.7 53.1 34.1 7.6 7.1 14.5 15 20.2 23.8 6.3 9.8 11.1 20.4 14.5 31.6 6.9 22.8 7.9 47.1 6.1 70.7-.4 5.8-1 11.5-1.7 17.2 0 .5.8.5.8 0zM662.2-25.9c12.5 19.2 19.9 42.4 18.1 65.5-.9 11.8-4.5 23.1-10.4 33.3-6 10.3-14 19.3-22.4 27.7-16.5 16.4-35.5 31-47.5 51.2-10.2 17.3-14.6 40.5-4.1 58.7 10.8 18.8 34.5 23.3 48.2 39.3 7.4 8.6 11.8 19.2 15.8 29.8 3.7 10 7.2 20 11.9 29.6 9.1 18.6 21.4 35.7 36.6 49.8 14.9 13.8 32.8 24.6 52.4 30.2 18.5 5.3 38.3 5.6 57 1.3 18.5-4.3 36-13.4 49.3-27.1 3.2-3.3 6-6.8 8.7-10.5.3-.4-.4-.8-.6-.4-23 32.6-66.3 45.5-104.5 38.2-40.9-7.8-74.3-38.3-94-73.9-5.2-9.4-9.3-19.3-13-29.4-3.6-9.8-7.1-19.8-12.4-28.9-5.3-9.1-12.6-16-21.4-21.7-8.8-5.6-18.4-10.3-26-17.6-16.2-15.5-15.9-40.6-7-59.9 9.9-21.4 28.6-36.8 45.4-52.7 16.3-15.5 32-32.9 37.1-55.5 4.8-21.2.7-43.8-8.5-63.3-2.3-4.9-5-9.7-7.9-14.2-.4-.3-1.1.1-.8.5zM499.6 210.3c.8-4.6.4-9.2-1.4-13.5-1.6-4.1-4.2-7.7-7.1-10.9-3.1-3.4-6.5-6.5-9.9-9.5-3.6-3.2-6.9-6.6-10.1-10.1-6.4-6.9-13.2-14.2-22.3-17.3-8.3-2.9-17.9-2.3-25.8 1.5-4 1.9-7.6 4.7-10.3 8.2-3 3.8-4.9 8.2-5.9 12.9-1 4.8-1 9.8-.2 14.6.8 4.8 2.3 9.5 4.3 13.9 3.4 7.6 7.9 14.7 14 20.4 5.7 5.4 12.6 9.2 20.1 11.4 4.1 1.2 8.4 1.9 12.7 2.2 5.3.4 10.6.2 15.8-.8 9.9-1.9 19.4-7.4 24-16.6 1-2 1.7-4.2 2.1-6.4.1-.5-.6-.7-.7-.2-1.7 9.7-9.6 17.1-18.5 20.6-5.1 2-10.5 2.8-16 2.9-4.6.1-9.2-.2-13.7-1.1-7.6-1.4-14.9-4.4-21.1-9-6.3-4.7-11.3-11-15.1-17.9-4.5-8.2-7.8-17.2-7.7-26.7.1-9.4 3.7-18.8 11.4-24.6 6.9-5.3 16.2-7.3 24.7-6 4.4.7 8.6 2.3 12.4 4.7 4 2.5 7.4 5.7 10.7 9.1 3.3 3.4 6.4 6.9 9.8 10.3 3.1 3.2 6.6 6 9.9 9 6.3 5.9 12.5 13 13.4 21.9.2 2.3.1 4.6-.2 6.8-.1.5.7.7.7.2z"/><path class="st1" d="M804.9 420.3c-39.8-2.9-78.2-18.8-109.1-44.1-15.3-12.5-28.8-27.4-39.6-43.9-11.3-17.4-18.2-37-27.8-55.3-4.7-9-10.2-17.6-17.4-24.9-6.6-6.7-14.5-11.9-21.6-18-7-6-13.7-13-15.9-22.3-2.8-11.9 2.8-23.5 6-34.8 5.3-18.9.6-38-10.6-53.8-11.7-16.6-28.8-27.8-47.8-34.4-21.7-7.5-44.8-9.3-67.5-10.7-23.2-1.4-47.6-3.5-69.9 4.5-34.9 12.5-58.6 49.3-57.7 86 .5 21.4 9.1 41.9 20.8 59.5 11.2 16.7 25.6 30.3 41.4 42.6 14.9 11.6 30.3 23.1 40.9 39 13.1 19.8 15.5 43.3 22 65.6 12 41.2 43.4 72.3 61.3 110.7 9.7 20.8 13.4 43.3 15.5 66 2 22.1 2.6 44.5 7.2 66.3 2.2 10.3 5.3 20.4 9.6 29.9.2.4.8.1.6-.4-18.9-41.4-12.1-88.3-21.9-131.8-4.7-20.8-14.1-39.5-25.4-57.4-11.2-17.7-23.6-34.6-33.5-53.1-5.1-9.6-9.5-19.6-12.6-30-3.3-11.3-5.4-22.9-8.5-34.3-2.8-10.3-6.5-20.4-12.1-29.5-4.8-7.7-10.7-14.6-17.3-20.9-13.6-12.8-29.4-22.9-43-35.7-15.9-14.8-29.2-33-37.1-53.3-7.8-19.7-9.4-41-3.1-61.4 5.8-18.5 17.4-35.2 33.1-46.6 18.4-13.4 40.5-16.8 62.8-16.5 11.7.2 23.4.9 35.1 1.7 11.7.8 23.5 1.9 35 4 21.8 3.9 43.5 11.6 59.9 26.9 14.6 13.6 25.4 32.8 24.4 53.2-.5 11.4-5.6 21.6-8 32.6-2 9.1-1.1 18.1 4.1 26 4.8 7.3 11.8 12.8 18.6 18.1 7.8 6.1 15.4 12.2 21.4 20.2 12.7 16.6 19.2 36.9 28.5 55.3 8.7 17.1 20.1 32.7 33.5 46.4 26.7 27.3 61.3 46.8 98.6 55 8.9 2 17.9 3.3 27 3.9.6.5.6-.3.1-.3z"/><path class="st1" d="M801.6 446.6c-37.2-11.9-75.1-24.4-108.1-45.9-16.3-10.6-31.1-23.5-42.9-39-12-15.8-20.5-33.8-29.5-51.4-8.8-17.3-18.4-34.7-32.1-48.7-6.7-6.8-14.4-12.7-20.6-20.1-7.2-8.5-10.6-18.2-9.6-29.3 1-10.9 4.8-21.3 5.3-32.2.4-7.3-.7-14.7-3.2-21.6-4.9-13.5-14.8-24.4-26.2-32.9-12.3-9.2-26.5-15.8-41-20.7-17.2-5.9-35.3-9.6-53.4-10.6-20.6-1.1-41.8 2-59.9 12.6-15.4 9.1-28.1 23.2-32.8 40.7-5.2 19.4-.5 40.2 8.6 57.8 9.8 18.8 24.9 34.2 40.3 48.6 15.6 14.6 31.9 28.5 45.2 45.3 6.7 8.4 12.5 17.6 16.7 27.5 4.5 10.5 6.9 21.7 9 32.9 2 11 3.8 22.1 7 32.8 3.1 10.2 7.8 19.8 13.4 28.9 5.7 9.3 12.2 18.1 18.4 27.1 6 8.9 11.6 18 16.6 27.5 20.2 38.5 31 81.9 31.3 125.4.1 10.4-.5 20.7-1.6 31-.1.5.7.5.7 0 4.6-42-.9-84.9-15.5-124.6-7.2-19.6-16.7-38.4-28.3-55.8-12.1-18.2-26.3-35.5-33.3-56.6-7.1-21.1-7.5-43.9-15.3-64.8-7.2-19.1-20.2-35.3-34.4-49.7-29.5-29.8-68.2-55.9-78.1-99.3-4.7-20.3-1-41.4 12.5-57.5 12.6-15 30.9-24.1 49.9-27.6 22-4 45-1.2 66.5 4.1 14.7 3.6 29.1 8.9 42.3 16.1 13.4 7.3 26.2 16.9 34.6 29.8 4 6.2 6.9 13.1 8.3 20.4 1.7 9.3.6 18.4-1.3 27.6-2.1 10-4.9 20.5-2.4 30.8 2.1 8.7 7.8 15.8 14 22 6.8 6.7 14.2 12.8 20.5 20 6.6 7.6 12.1 16 17.1 24.7 9.8 16.9 17.6 34.9 27.4 51.8 9.6 16.5 21.6 31.2 36.3 43.5 29 24.4 64.9 39 100.4 51.2 8.9 3.1 17.9 6 26.8 8.8.6.3.8-.4.4-.6z"/><path class="st1" d="M813.7 474.3c-41-10.1-80.7-25.6-117.7-46-17.7-9.7-35.2-20.4-51.1-32.8-14.5-11.4-28-25-35.6-42-8.2-18.2-6.6-39.3-16.5-56.8-8-14.2-20.8-24.8-31.2-37.3-5.3-6.4-10-13.4-12.6-21.3-3.3-10.3-2.4-21.1-1.7-31.7.6-10 .8-19.9-2.4-29.5-2.7-8.2-7.3-15.6-12.9-22.2-12.8-14.9-30.6-24.1-48.5-31.3-17.8-7.2-36.3-14.3-55.6-16.2-17-1.7-34.7 1.8-47 14.5-10.4 10.8-15 26-15.1 40.8-.4 37.4 27 65.4 53 88.7 14.3 12.8 29.1 25.2 41.5 40 6.2 7.4 11.8 15.4 16.1 24.1 4.7 9.5 7.5 19.5 9.2 29.9 1.8 10.8 2.7 21.8 5 32.6 2.1 10.1 5.5 19.8 9.7 29.3 8.5 19.6 20 37.6 30.9 56 10.8 18.3 21.3 36.9 28.9 56.8 7.9 20.7 12 42.5 11.4 64.6-.3 11.1-1.7 22.1-4.3 32.9-.1.5.6.7.7.2 4.9-21.1 5.7-43.1 2.1-64.5-3.4-20.4-11-39.7-20.2-58.1-9.5-18.8-20.8-36.7-31.4-54.9-10.6-18.2-20.7-37.1-25.9-57.6-5.2-20.5-4.5-42.3-12.8-62.1-7.2-17.1-19.4-31.6-32.5-44.5-26.7-26.3-61.9-48.8-75.7-85.4-5.7-15.1-6.8-32.4-1.9-47.8 5.1-16.4 17.5-29 34.3-33.3 18.8-4.9 38.9.2 56.8 6.3 19.2 6.5 39.1 13.9 55.7 25.8 15.5 11.2 28.4 27.7 30.3 47.3 1.1 10.7-.8 21.3-.8 32 0 8.8 1.5 17.2 5.6 25.1 7.3 14.3 20 24.9 30.4 37 5.6 6.5 10.6 13.6 13.7 21.6 3.7 9.5 4.9 19.7 6.9 29.7 1.9 9.2 4.7 18.1 9.4 26.3 4.3 7.6 9.7 14.5 15.8 20.8 13 13.4 28.6 24 44.3 33.9 35 21.9 72.7 39.3 112.1 51.7 9.7 3 19.5 5.8 29.3 8.2.5 0 .7-.7.3-.8z"/><path class="st1" d="M806.4 490.3c-38.9-11.1-76.7-26-112.6-44.5-17.9-9.2-35.3-19.2-52.2-30.1-15.5-10-30.7-20.9-42.6-35-6.2-7.3-11.1-15.5-14.9-24.3-3.9-9.1-6.8-18.6-9.9-27.9-3-8.7-6.2-17.4-10.8-25.4-4.4-7.7-10-14.7-15.2-21.9-5.3-7.2-10.5-14.7-13.7-23.2-3.7-9.6-4.1-19.8-4-30 .1-9.9.4-19.9-2.2-29.5-2.1-8.1-6.2-15.7-11.3-22.4-11.1-14.5-26.9-24.2-43.3-31.6-8.8-3.9-17.8-7.3-26.8-10.7-8.5-3.1-17.3-6-26.4-6.4-8.1-.3-16.1 1.8-22.3 7.2-5.6 4.9-9.1 11.7-10.9 18.8-4 15.6-.3 32.5 6.6 46.7 15.7 32.4 46.2 53.3 71.8 77.2 13 12.1 25.2 25.4 33.3 41.3 9 17.6 11 37.2 14.3 56.4 1.7 9.7 3.8 19.4 7.4 28.6 3.3 8.2 7.8 15.9 12.8 23.2 10.3 15 22.8 28.4 32.6 43.7 20.9 32.6 28.1 71.5 32.2 109.4 1 9.2 1.9 18.5 2.7 27.7 0 .5.8.5.7 0-3.3-37-6.8-75-20.8-109.8-6.8-16.9-16.4-31.9-27.6-46.2-11.2-14.3-23.1-28.4-30.6-45.1-8.1-18.1-9.3-38.1-13-57.3-1.8-9.1-4.2-18.1-8-26.6-3.5-7.8-8.1-15.1-13.3-21.9-21.5-27.9-52.2-46.6-75.1-73.2-11.5-13.3-21.4-28.7-25.2-46.1-3.5-15.7-2.2-35.4 10.9-46.6 15.5-13.3 37.5-4.3 54 1.9 18.2 6.9 36.7 14.4 51.6 27.2 6.6 5.7 12.5 12.4 16.9 20 4.8 8.3 7.3 17.4 8 27 .7 10.3-.3 20.6.6 30.9.8 8.8 3.4 17 7.7 24.7 8.6 15.5 21.5 28.2 28.9 44.4 8 17.4 11.5 36.6 20.5 53.5 8.3 15.7 21.2 28.2 35.2 38.7 15.2 11.5 31.7 21.4 48.3 30.9 34.2 19.4 70.3 35.6 107.6 48.2 9.2 3.1 18.6 6 28 8.7.4.2.6-.5.1-.6zM670.9-37.1c12 18.1 24.4 37.2 29.3 58.7 2.4 10.7 2.7 21.8.2 32.5-2.3 10-6.8 19.5-12.4 28.1-12.3 18.9-29.6 33.4-45.7 48.8-14.4 13.8-30.9 29.9-33.6 50.7-1.2 9.3.6 19.1 6.5 26.6 5.9 7.4 14.5 11.8 22.3 16.8 7.8 5 14.4 11.2 19.8 18.7 5.1 7.1 9.1 14.9 12.8 22.8 7.5 16.3 13.5 33.6 23.9 48.5 11.5 16.4 28.2 28.2 46 36.8 10.1 4.9 20.8 8.9 32 10.4 9.9 1.3 19.8.2 29.2-3.1 18.1-6.4 32.8-19.8 45.8-33.4 3.4-3.5 6.6-7.1 9.9-10.7.3-.4-.2-.9-.5-.5-13.1 14.5-26.9 29.3-44.1 38.8-8.6 4.7-18 7.9-27.9 8.6-11.5.8-22.9-2-33.5-6.1-19.3-7.5-38.1-18.9-51.5-34.8-11.7-13.9-18.3-31-25.4-47.4-6.8-15.5-14.4-31.5-27.5-42.7-6.9-6-15.3-9.9-22.7-15.3-4-2.9-7.7-6.4-10.3-10.7-2.7-4.5-4.1-9.6-4.5-14.8-1.5-22.1 14.9-40 29.5-54.4C654 120.3 671 106.5 684 89c12-16.1 20.2-35.2 18.7-55.6-1.5-20.9-11.6-40-22.5-57.4-2.8-4.5-5.8-9-8.7-13.5-.2-.4-.9 0-.6.4z"/><path class="st1" d="M695.7-19c16.6 9.7 27.7 26.8 32.2 45.3 4.7 19.6 1.3 40-7.9 57.7-4.7 9-10.7 17.3-17.7 24.7-7.6 8-16.4 14.4-25.7 20.4-17.2 11-37.5 22.5-44.1 43.3-2.6 8.2-2.2 17.4 1.4 25.1 1.7 3.7 4.3 7.1 7.5 9.6 4.2 3.3 9.3 4.8 14 7 18.6 8.5 22.6 30.4 28.9 47.8 7 19.2 17.3 37.6 32.1 51.8 14.6 13.9 33.7 23.1 54 24 9.7.4 19.5-1.2 28.4-5 8.3-3.5 15.7-8.8 22.1-15.1 13.3-13.1 22.3-29.9 30.1-46.6 2-4.2 3.8-8.5 5.7-12.8.2-.4-.4-.8-.6-.4-7.5 17.3-15.5 34.7-27.1 49.6-11.7 14.9-27.5 26.5-46.6 29-20.8 2.7-42.2-4.5-58.5-17.4-16.4-13-28.1-31.1-36-50.2-3.7-9-6.3-18.3-9.7-27.4-3.1-8.2-7-16.5-13.6-22.4-3.5-3.1-7.5-5.2-11.8-6.9-4.9-2-9.7-4-13.4-8-6.3-6.7-8.5-16.6-7.4-25.6 2.9-22.2 24.3-35.7 41.6-46.6 9-5.7 17.9-11.6 25.6-19 7.1-6.7 13.3-14.4 18.3-22.8 9.9-16.4 15.1-35.7 12.8-54.8C728.1 17.5 720 .1 706.6-12c-3.2-2.9-6.8-5.5-10.5-7.7-.5-.2-.9.4-.4.7z"/><path class="st1" d="M728.9-16.9c11.7 14.4 19.4 31.8 22.6 50 3.1 18 1.8 36.7-4.3 54-5.8 16.3-15.5 31.1-28.1 43-6.3 5.9-13.2 11.2-20.7 15.5-8 4.6-16.7 7.4-25.1 11.3-7.8 3.7-15.3 9.1-18.3 17.6-2.6 7.3-.2 14.5 5.3 19.6 5.5 5 12.4 8 18.4 12.4 7.2 5.3 11.4 12.8 14.2 21.1 2.8 8.3 4.5 16.9 7.6 25 2.9 7.7 7.1 15 12.2 21.5 10.4 13.3 25.2 24.2 41.6 28.5 8.1 2.1 17.1 2.5 24.9-1.2 8.8-4.1 14-13.3 19.4-20.9l39.6-55.2c3.2-4.5 6.5-9 9.7-13.5.3-.4-.4-.8-.6-.4-13 18.1-26.1 36.3-39.1 54.4l-9.9 13.8c-3.1 4.3-6.1 8.8-9.4 12.8-3.1 3.7-6.7 6.9-11.1 8.7-4.2 1.7-8.7 2.3-13.2 2.2-9.1-.3-17.9-3.6-25.8-8-7.6-4.2-14.5-9.6-20.4-15.9-5.9-6.2-10.8-13.4-14.5-21.1-3.8-7.9-5.8-16.5-8.3-24.9-2.2-7.7-5-15.6-10.2-21.9-4.9-5.9-11.8-9.3-18.2-13.4-6.5-4.1-12.8-9.7-12.6-18 .2-9.6 7.9-17 15.9-21.2 8.2-4.4 17.1-6.9 25.3-11.3 7.3-3.9 14.1-8.6 20.3-14 12.6-11 22.8-24.8 29.3-40.2 6.8-16 9.5-33.4 8-50.7-1.5-17.6-7.2-34.9-16.6-49.9-2.3-3.6-4.8-7-7.4-10.3-.3-.3-.8.2-.5.6z"/><path class="st1" d="M769.7 94.2c-2.7 10.9-7.6 21.1-14.4 30.1-6.8 9-15.3 16.6-25.1 22.2-5.5 3.1-11.3 5.4-17.1 7.7-5.9 2.4-11.8 4.9-16.9 8.7-8.7 6.4-15.5 17.7-11.1 28.5 3.9 9.8 14 15.2 20.3 23.3 5.8 7.5 9.1 16.6 12.3 25.5 3.1 8.5 6 17.4 11.2 24.9 5.4 7.7 13.4 13.1 22.9 13.8 11 .8 22.1-4.1 30.1-11.4 9.1-8.3 15-19.5 20-30.6 1.3-2.8 2.5-5.6 3.7-8.4.2-.4-.5-.8-.6-.4-4.8 11.2-9.7 22.7-17.5 32.3-7.2 8.9-17.1 15.7-28.6 17.4-5.5.8-11.2.2-16.3-2-4-1.8-7.5-4.4-10.4-7.7-6-6.7-9.2-15.4-12.3-23.7-3.2-8.7-6-17.6-10.8-25.5-2.5-4.1-5.6-7.7-9.1-11-3.8-3.6-7.9-7-11.1-11.2-3.3-4.3-5.2-9.6-4.4-15.1.8-5.7 4.1-10.9 8.1-14.9 9.1-9 22.1-11.8 33.3-17.3 9.8-4.8 18.6-11.6 25.8-19.7 7.2-8.1 12.8-17.6 16.4-27.8.9-2.5 1.6-5 2.3-7.6.1-.4-.6-.6-.7-.1z"/><path class="st1" d="M778.5 134.3c-2.4 7.7-6.8 14.8-12.5 20.5-5.8 5.8-13 10.1-20.9 12.4-8.9 2.6-18.9 3.1-26.9 8.3-6.4 4.1-11.8 11.3-10 19.3 1.4 6.1 6.6 10.1 11.7 13.2 5.6 3.4 11.8 6.3 16.2 11.2 5.3 5.8 6.3 13.9 8.6 21.1 1.1 3.5 2.6 7 5.1 9.9 2.4 2.8 5.6 4.7 9.2 5.7 7.3 2 15.4.1 21.6-4 7.3-4.9 12.4-12.2 16.8-19.7l3.3-5.7c.2-.4-.4-.8-.6-.4-4.3 7.6-8.6 15.4-15.1 21.4-3 2.8-6.4 5.1-10.2 6.6-3.5 1.3-7.3 2-11.1 1.8-3.7-.2-7.3-1.3-10.3-3.5-3.1-2.2-5.2-5.5-6.7-9-2.9-7-3.5-14.8-7.5-21.3-3.4-5.7-9.3-9.1-14.9-12.4-5.2-3-11.2-6.2-14.1-11.7-1.6-3.1-2-6.6-1.1-10 1-3.9 3.6-7.2 6.6-9.7 7.1-6 16.7-7.1 25.5-9.2 4.2-1 8.3-2.3 12.1-4.2 3.5-1.7 6.8-3.9 9.8-6.4 6-5 11-11.4 14.1-18.6.8-1.7 1.4-3.5 2-5.3.2-.5-.5-.7-.7-.3z"/><path class="st1" d="M779.9 179.7c-8.4 3.4-17.5.1-26.1-.7-4.1-.4-8.4-.2-12.2 1.4-3 1.3-5.9 3.5-7.5 6.4-1.6 3-1.7 6.6-.4 9.7 1.4 3.4 4 6.1 6.8 8.3 3.1 2.4 6.6 4.5 10.1 6.2 3.7 1.8 7.5 3.4 11.4 4.6 7.9 2.4 16.1 3.6 24.4 3.4 1 0 2.1-.1 3.1-.1.5 0 .5-.8 0-.7-8 .5-16.1-.2-23.9-2.2-7.7-2-15.2-5.2-21.9-9.6-5.6-3.6-12.2-9.9-9.9-17.3 1-3.2 3.6-5.7 6.5-7.3 3.5-1.9 7.5-2.3 11.5-2.1 8.4.4 16.7 3.6 25.1 1.7 1-.2 2-.5 2.9-.9.7-.2.5-1 .1-.8zM374.7-17.1c15.5 6.6 31 13.3 46.3 20.3 15.4 7 30.6 14.3 45.5 22.1 14.8 7.8 29.4 16.2 43.4 25.4S537.4 69.9 550 81c6.3 5.5 12.3 11.2 18.1 17.2 5.7 5.9 11 12.2 17.6 17 5.8 4.2 13.1 7.3 20.3 4.9 6.4-2.1 10.4-7.8 13.6-13.4 1.8-3.1 3.4-6.2 5.2-9.2 1.9-3 4.1-5.7 6.7-8.1 5.2-4.8 11.2-8.7 16.7-13.2 4.9-4.1 9.5-8.9 11.5-15.1 2.1-6.8 2.1-14.2 1.7-21.2-.7-14.6-3.2-29-9.1-42.5-6.1-14-15.4-26.7-27.2-36.5-2.8-2.4-5.8-4.5-8.9-6.5-.4-.3-.8.4-.4.6 12.9 8.3 23.5 19.9 31 33.2 7.5 13.2 11.6 27.7 13.1 42.7.7 7 1.2 14.2.6 21.3-.3 3.4-.8 6.8-2 10-1.2 3.1-3.2 5.9-5.4 8.4-4.7 5.2-10.7 9-16.2 13.3-5.2 4-9.9 8.4-13.3 14.2-3.5 5.9-6.2 12.6-11.3 17.3-2.7 2.6-6.2 4.3-9.9 4.7-3.9.4-7.7-.7-11.1-2.4-7.2-3.6-13-9.7-18.4-15.6-5.6-6-11.4-11.8-17.4-17.3-11.9-10.9-24.6-20.8-37.9-29.9-13.5-9.3-27.6-17.7-42-25.6-14.4-7.9-29.2-15.2-44.1-22.1-14.9-7-30-13.6-45.2-20.1l-11.1-4.8c-.6-.3-.9.4-.5.6z"/><path class="st1" d="M421.2-25.3C434-21 446.5-16 458.6-10.2 470.7-4.5 482.5 1.9 493.8 9c11.4 7.1 22.5 14.8 33 23.2 10.5 8.3 20.5 17.2 30 26.6 4.8 4.7 9.4 9.6 13.9 14.6 4.4 4.9 8.4 10.2 13 14.9 4 4.1 8.9 8.1 14.8 8.7 5.2.5 9.9-2 13.4-5.8 3.6-3.9 6.2-8.7 9.1-13.2 1.7-2.6 3.6-5.1 5.8-7.3 2.4-2.5 5.1-4.7 7.7-7.1 4.5-4.2 8.2-9 10.4-14.8 2.1-5.5 2.7-11.5 2.4-17.4-.8-12.3-6.1-23.8-14-33.2-8.8-10.2-19.9-18-31.2-25.2-2.8-1.8-5.6-3.5-8.5-5.2-.4-.2-.8.4-.4.6 11.4 7 22.9 14.1 32.7 23.3 9.3 8.8 16.6 19.4 19.4 32 2.6 11.6 1.2 24.5-6.4 34.1-4.3 5.4-10.1 9.3-14.6 14.4-3.5 4.1-6.1 8.9-9.1 13.3-2.9 4.3-6.4 8.6-11.5 10.1-6.2 1.8-12-1.2-16.6-5.2-4.8-4.2-8.6-9.3-12.8-14.1-4.3-5-8.8-9.8-13.4-14.5-9.2-9.4-18.9-18.3-29.1-26.6-10.1-8.2-20.6-15.9-31.4-23C489.4 5 478-1.5 466.2-7.4c-11.7-5.9-23.6-11.1-35.9-15.6-3-1.1-6-2.2-9.1-3.2-.2 0-.4.7 0 .9z"/><path class="st1" d="M485.7-15.5c8.8 3.9 17.4 8.4 25.7 13.4s16.3 10.6 23.9 16.6c7.6 6 14.8 12.6 21.6 19.5 3.3 3.5 6.6 7 9.7 10.7 3.2 3.7 6.2 7.6 9.3 11.5 6 7.3 13.1 14.4 22.7 16.1 4.3.7 8.8.4 12.7-1.7 3.5-1.9 6.1-5.1 8.1-8.5 2.1-3.6 3.6-7.5 5.4-11.2.9-1.9 1.9-3.7 3-5.4 1.3-1.9 2.8-3.7 4.2-5.5 2.6-3.3 5.2-6.9 5.4-11.3.2-4.2-1.9-7.9-4.7-10.9-3.2-3.4-7.1-6-11-8.7-4.5-3.1-9.1-6.1-13.7-9-9.3-5.9-18.8-11.4-28.5-16.6-2.3-1.3-4.7-2.5-7.1-3.7-.4-.2-.8.4-.4.6 9.6 4.9 19 10.2 28.2 15.8 4.6 2.8 9.1 5.6 13.6 8.6 4.3 2.8 8.7 5.6 12.8 8.7 3.4 2.6 6.9 5.6 8.8 9.5.9 1.9 1.3 4.1 1.1 6.2-.2 2.2-1.1 4.3-2.2 6.1-2.2 3.7-5.4 6.8-7.7 10.5-2.2 3.5-3.7 7.3-5.4 11-1.7 3.6-3.5 7.2-6.3 10.1-3.1 3.2-7.3 4.9-11.7 5-4.6.1-9.3-1.3-13.2-3.6-4.2-2.4-7.7-5.9-10.9-9.5-3.2-3.6-6.1-7.5-9.1-11.2-3-3.7-6.1-7.2-9.3-10.7-6.5-6.9-13.4-13.5-20.7-19.6-7.2-6-14.8-11.6-22.7-16.7-8-5.1-16.3-9.8-24.8-13.9-2.1-1-4.2-2-6.3-2.9-.5-.1-.9.5-.5.7z"/><path class="st1" d="M535.3-5.7c11 10 22 20.1 32.9 30.1 5.4 5 10.9 9.9 16.3 14.9 4.7 4.2 9.8 8.7 16.2 9.6 2.9.4 6 .2 8.7-1.2 2.1-1.1 3.9-2.9 5.1-5 2.5-4.4 2.6-9.8.7-14.4-2.1-5.2-6.4-9.3-11.2-12.1-5.7-3.5-12.2-5.4-18.5-7.6-12.3-4.3-23.9-10.7-34.1-18.9-1.2-1-2.5-2-3.7-3.1-.4-.3-.9.2-.5.5C556.7-4.7 567.4 2 579 6.9c6.1 2.5 12.5 4.3 18.6 6.9 5.4 2.3 10.6 5.5 14.2 10.2 3.2 4.2 4.7 9.5 3.4 14.7-.6 2.3-1.7 4.6-3.5 6.3-2 2-4.7 3.1-7.5 3.3-6.6.4-12.2-3.4-16.9-7.5-5.3-4.6-10.4-9.5-15.7-14.3C561 16.8 550.3 7 539.7-2.7c-1.3-1.2-2.6-2.4-3.9-3.5-.4-.4-.9.1-.5.5zM338.6-18.9c33.9 26 72.9 45.3 114.3 56.3 8 2.1 17.5 4.3 23.1 11 3.2 3.8 3.9 9 1.4 13.3-2.7 4.7-8 7.3-13.2 8-6.1.9-12.2-.4-18.2-1.1-5.6-.7-11.2-1.2-16.8-1.4-10.7-.5-21.5 0-32.1 1.6-37.2 5.6-74 27.7-87.1 64.6-14.1 39.7 5.5 81.6 30.5 112.2 27.3 33.3 62.8 59.5 86.2 96 5.8 9 10.8 18.6 14.4 28.7 2 5.6 4.7 12.4 1.7 18.2-2.2 4.3-7 6.6-11.6 7.2-10.9 1.4-20.9-7-29.8-12.2-9.3-5.5-18.8-10.6-28.6-15.2-36.8-17.4-80.6-28.8-120.7-15.7-12.4 4-23.7 12.1-29.5 24-5 10.3-5.4 22.4-1.4 33.1 4.5 11.9 14 21.3 25.4 26.8 14.6 7.1 31.3 7.4 47 11 8.2 1.9 16.3 4.6 23.1 9.6 7.8 5.7 12.6 14.1 17.1 22.5 9.8 18.6 16.3 38.6 23.1 58.5 3.2 9.3 6.4 18.6 10 27.7.2.4.9.2.7-.2-7.6-19.2-13.4-39.1-20.8-58.4-3.6-9.4-7.5-18.6-12.1-27.5-4.1-7.9-8.6-16-15.7-21.8-12.6-10.3-29.6-12.1-45-14.7-15.4-2.6-30.7-6.5-42-18-8.9-9.2-13.9-21.9-12.6-34.7 1.4-13.5 9.7-25 21.3-31.9 7.8-4.6 16.7-7 25.5-8.6 10.5-1.9 21.3-2.4 32-1.8 22.2 1.4 43.9 7.7 64.2 16.4 10.1 4.3 20 9.2 29.6 14.6 4.6 2.6 9.2 5.2 13.7 8 4.3 2.6 8.5 5.4 13.1 7.3 7.2 3 16.2 3.5 22.2-2.4 7-6.9 2.3-17.8-.8-25.4-15.6-39.5-48.8-67.8-77.7-97.4C332.8 238.9 303.2 201 306 156c2.6-42.2 37.6-73.1 76.7-83.2 22.3-5.8 45.3-5.4 67.9-2.4 9 1.2 19.7 1.7 26-6.2 4.2-5.3 3.4-12.3-1.3-17-5.4-5.4-13.3-7.8-20.5-9.7-10.5-2.7-20.9-6-31-9.7-20.6-7.6-40.5-17.4-59.2-29-8.9-5.6-17.5-11.6-25.9-18-.1-.6-.5 0-.1.3z"/><path class="st1" d="M438.9 202.7c3.3 1.7 5.6 4.7 8.2 7.2 2.4 2.3 5.3 4 8.8 3.2 3.9-.9 7.6-3.8 8.6-7.8.9-3.6-.4-7.4-2.6-10.3-1.8-2.3-4.3-3.6-6.8-5-3.3-1.8-6.7-3.4-10.2-4.8-2.5-1.1-5.1-2.2-7.8-2.6-3.1-.5-6.7-.3-9.6 1.3-1.2.6-2.1 1.6-2.6 2.8-.6 1.4-.3 3 .2 4.4 1.9 4.7 6.1 7.6 10.4 9.8 1.1.7 2.2 1.2 3.4 1.8.4.2.8-.4.4-.6-4.4-2.3-9-4.3-11.9-8.5-1.7-2.4-3.2-6-.5-8.3 2.2-2 5.8-2.3 8.6-2.1 2.6.2 5 1 7.5 2 3.2 1.3 6.4 2.8 9.5 4.3 1.5.7 3 1.5 4.4 2.3 1 .6 2 1.2 2.9 1.9 2.5 2.1 4.2 5.6 4.3 8.8.1 4.1-2.5 7.3-6.1 9-1.6.8-3.4 1.2-5.2.9-1.5-.3-2.9-1.1-4-2.1-2.6-2.1-4.6-4.8-7.3-6.9-.7-.5-1.4-1-2.2-1.4-.5-.1-.8.5-.4.7zM511.4 79c1.7.4 3.4.8 5.2 1.2 1.3.2 2.9.3 4.1-.4 2.5-1.6 1.9-4.9.7-7.1-1.6-2.7-3.9-4.9-6.3-6.8-1.2-1-2.5-1.9-3.7-2.9-1.1-.9-2.1-1.8-3.2-2.7-2.6-1.9-5.5-2.9-8.7-3.2-1.7-.2-3.5-.2-5.2-.1-1.4 0-2.9.1-4.2.5-1.1.4-2.2 1-2.8 2.1-.7 1.2-.7 2.7-.2 4 .4 1.3 1.3 2.5 2.1 3.6.9 1.2 1.8 2.3 2.8 3.3 2.5 2.5 5.4 4.2 8.6 5.4 3.4 1.4 7.1 2.3 10.8 3.1.5.1.7-.6.2-.7-3-.7-6-1.3-8.8-2.3-2.7-.9-5.5-2-7.8-3.7-2.2-1.6-4.2-3.8-5.7-6.1-.7-1-1.5-2.1-1.8-3.4-.3-1.4 0-2.9 1.1-3.8 1-.8 2.3-1.1 3.6-1.2 1.4-.1 2.9-.2 4.3-.1 3.1 0 6.3.4 9 1.8 2.4 1.3 4.3 3.2 6.4 4.9 2.2 1.8 4.5 3.4 6.5 5.6 1.8 2 4.6 5.5 2.8 8.3-.9 1.5-2.8 1.5-4.3 1.2-1.7-.3-3.5-.8-5.2-1.2-.6-.1-.8.6-.3.7zm-64.1-32c3.1.4 6.9 1.1 9.2 3.5 1.2 1.2 1.8 2.9 1.6 4.6-.3 1.8-1.4 3.4-2.8 4.5-3.7 2.9-8.6 2-12.8.8-2.3-.7-4.5-1.5-6.8-2.2-2.3-.7-4.5-1.3-6.8-1.8-9.1-2.2-18.5-3.3-27.9-3.4-2.4 0-4.7 0-7.1.1-1.8.1-3.6.3-5.4-.1-1.5-.3-2.9-1-3.5-2.4-.2-.4-.3-.8-.3-1.3 0-1.9 2.4-2.9 4-3.5 3.3-1.1 6.9-1.4 10.4-1.6 4.6-.3 9.2-.2 13.8-.1 4.8.2 9.6.4 14.4.8 4.1.3 8.1.7 12.2 1.1 2.4.3 4.8.5 7.3.8 0 .1.3.1.5.2.5.1.5-.7 0-.7-2-.3-4-.5-6-.7-4-.4-8-.8-11.9-1.1-4.9-.4-9.8-.7-14.7-.9-4.8-.2-9.7-.3-14.5-.1-3.7.2-7.6.4-11.2 1.5-1.9.5-4.6 1.5-5 3.8-.3 1.4.4 2.8 1.5 3.7 1.2 1.1 2.9 1.4 4.5 1.5 2.1.1 4.1-.1 6.2-.2 9.9-.3 19.8.6 29.5 2.6 4.8 1 9.5 2.3 14.1 3.9 4.2 1.4 9.2 3.1 13.6 1.4 3.1-1.3 6.1-4.4 5.6-8-.5-3.4-3.5-5.3-6.6-6.3-1.6-.5-3.3-.8-4.9-1-.7-.2-.7.5-.2.6z"/><path class="st1" d="M316.6-17.1c18.1 11 36.1 21.9 54.2 32.9 4.6 2.8 9.1 5.5 13.7 8.3 2.2 1.3 5.1 2.7 5.7 5.4.7 3.1-1.8 6.1-4.3 7.5-6.6 3.9-17.4-.1-21.5 8.4-1.3 2.7-.5 5.1 1.3 7.2 2 2.4 3.6 4.4 2 7.4-2.4 4.4-7.9 7.1-12.1 9.4-4.9 2.7-10.1 5-15.1 7.5-5.2 2.6-9.6 6.1-13.9 10.1-26.3 24.3-39.2 60.3-34.5 95.8 4.6 34.8 26.3 62.6 50.6 86.4 12.8 12.6 26.4 24.5 39.3 37.1 13.9 13.6 26.6 28.3 37.4 44.5 2.5 3.7 4.7 7.5 6.8 11.4 2.3 4.3 5 9.1 5.7 14 .9 6.3-4.7 10-10.5 8.8-4-.8-7.3-3.6-10.1-6.4-2.5-2.5-4.9-5.2-7.7-7.4-3.3-2.5-7.3-4-11-5.9-9-4.6-17.7-10-26.9-14.4-31.5-15.2-70.1-20.3-104-10.5-14.2 4.1-28.1 11.2-37.8 22.5-10.2 11.8-14.3 27.3-11.7 42.7 2.7 16 12.2 29.9 25.5 39 6.6 4.5 13.9 7.7 21.6 9.7 8.9 2.3 18.1 2.3 27.1 3.3 9.4 1 18.3 3.6 25.8 9.5 6.5 5.1 11.6 11.9 15.5 19.1 8.6 15.8 11.4 33.8 16.5 50.9 2.5 8.4 5.5 16.7 9.9 24.3.2.4.9 0 .6-.4-16.9-29.4-13.1-70.6-41.1-93.7-6.1-5-13.2-8.1-21-9.6-9.5-1.8-19.3-1.4-28.9-3.2-17.1-3.2-33.2-13.1-42.8-27.8-9.8-15.2-12-35.4-4.2-51.8 7-14.6 20.7-24.6 35.4-30.5 16.2-6.5 34-8.6 51.4-8 19.4.7 38.7 5 56.6 12.8 9.2 4 17.8 9.1 26.6 13.9 4.4 2.4 9 4.4 13.4 6.8 3.3 1.8 6 4.6 8.6 7.2 4.2 4.3 9.4 9.5 16 8.8 2.8-.3 5.5-1.6 7-4.1 2-3.3.8-7.4-.5-10.7-6.5-16.3-17.6-31-28.9-44.3-12.5-14.9-26.9-28-41.1-41.2-25.5-23.6-52.2-48.6-63.7-82.2-12.3-36.1-4.5-77.3 20.2-106.3 5.3-6.2 11.4-12.6 18.3-17 4-2.6 8.6-4.4 13-6.5 5.1-2.5 10.2-5 14.7-8.4 2.5-1.9 5.8-4.8 5.3-8.3-.5-3.3-4.3-4.9-4.6-8.3-.5-6.7 7.8-8.3 12.7-8.8 5.4-.5 14.4-2.4 13.8-9.8-.3-3.6-4-5.2-6.6-6.9-4.6-2.8-9.1-5.5-13.7-8.3-9.1-5.5-18.2-11.1-27.3-16.6-8.8-5.3-17.6-10.7-26.4-16-.4-.2-.8.4-.3.7zm458.7 520.5c-27.5-6.4-54.4-15.8-80-27.8-25.2-11.9-49.2-26.4-71.5-43.2-11.3-8.6-22.2-17.7-31.8-28.2-9.8-10.7-17.5-22.8-23.4-36-11.6-25.7-17.4-53.9-31.4-78.6-6.5-11.4-14.7-21.9-25.4-29.8-10-7.4-22.1-12.5-34.6-13-3-.1-5.9 0-8.9.4-2.7.4-5.5 1-7.8 2.6-4.2 3-3.6 8.4-.5 12 4.1 4.7 11.2 5.1 16.7 7.2 5.4 2 10.5 5.2 14.8 9 19.3 16.9 25.1 43.3 28.5 67.5 2.1 14.5 3.6 29.1 7.8 43.2 4 13.4 10.7 25.6 18.6 37 8 11.6 16.9 22.6 24.8 34.3 8 11.8 15.1 24.1 21.6 36.7 12.9 25.4 22.6 52.2 29.7 79.8 1.7 6.7 3.3 13.5 4.7 20.4.1.5.8.3.7-.2-5.6-27.3-13.8-54.1-24.8-79.7-11.1-25.8-25.3-49.9-42-72.4-8.2-11.1-16.7-22.2-23.3-34.3-7-12.8-10.9-26.6-13.4-40.9-4.4-25.6-5.3-52.4-18.8-75.4-5.5-9.3-13-17.7-22.6-23-2.3-1.3-4.7-2.3-7.2-3.2-3.4-1.1-7-1.8-10.2-3.2-3.1-1.4-5.8-3.6-6.8-7-1.1-3.5.7-6.5 3.8-8.1 2.8-1.4 6.2-1.8 9.4-2 3.1-.2 6.2-.1 9.3.2 6.6.8 13 2.8 19 5.7 12.1 5.8 22.1 15 29.8 25.8 16.5 23 23.1 51 33.1 77 5 13 11 25.6 19.2 36.8 8.1 11.1 18 20.8 28.5 29.6 21 17.7 44.3 32.9 68.6 45.6 24.3 12.8 49.9 23 76.2 30.6 6.5 1.9 13.1 3.6 19.7 5.1.2.3.4-.4-.1-.5z"/><path class="st1" d="M731.5 518.4c-18-4.8-35.5-11.6-52.1-20s-32.4-18.5-47.1-30.1c-15.2-11.9-29.2-25.4-41.8-40.1-3.3-3.9-6.5-8-9.8-12-3.2-3.7-6.6-7.3-9.5-11.2-3-4-5.2-8.3-7.4-12.7-2.3-4.6-4.5-9.3-6.5-14-4.1-9.6-7.6-19.4-10.4-29.4-.7-2.4-1.3-4.9-2-7.3-.5-2.1-1.1-4.2-2.4-6-1.9-2.7-5.8-4.6-8.7-2.3-2.7 2-2.9 6-2.8 9.1.2 4.6.8 9.3 1.5 13.8 1.5 9.9 3.9 19.6 7 29.1 3.1 9.2 6.8 18.3 11.4 26.9 4.5 8.4 10.8 15.7 17.1 22.8 6.8 7.6 13.6 15.4 20.6 22.8 6.9 7.3 14.1 14.4 21.1 21.6 13 13.1 25.8 26.4 37.3 40.9 11.4 14.3 21.4 29.9 28.2 46.9 1.6 4.1 3.1 8.3 4.3 12.5.1.5.8.3.7-.2-5-17.1-13.4-33-23.6-47.6-10.4-14.8-22.5-28.3-35-41.4-13.6-14.2-27.8-27.8-41-42.4-6.6-7.3-13.2-14.5-19.4-22.1-3.1-3.8-6-7.7-8.4-11.9-2.4-4.1-4.4-8.4-6.3-12.8-8-18-13.2-37.5-14.7-57.2-.3-3.3-.6-8.6 2.8-10.5 2.3-1.3 4.9-.2 6.6 1.6 1.7 1.8 2.4 4.3 3 6.7 2.5 9.8 5.5 19.4 9.2 28.8 3.6 9.3 7.7 18.3 12.4 27.1 2.2 4.2 4.8 7.9 7.9 11.5 3.1 3.6 6.3 7.1 9.3 10.9 12.1 15.3 25.8 29.4 40.7 42 13.9 11.8 29 22.2 44.9 31.2 15.9 8.9 32.7 16.3 50 21.9 4.2 1.4 8.5 2.6 12.8 3.8.4.1.5-.6.1-.7zm-230.9-255c-2.4-1.1-5.2-2.4-7.8-1.4-2.4.9-3.2 3.5-2.2 5.8 1.1 2.6 3.9 3.9 6.2 5.2 2.5 1.4 4.8 3 7 4.8 9 7.2 15.7 17.1 19 28.1.9 3.1 1.6 6.4 2.3 9.6.3 1.6.6 3.2 1 4.7.3 1.4.6 2.8 1.2 4 1.1 2.2 3.4 4.1 5.9 3.5 2.4-.6 3.3-3.2 3.6-5.4.8-5.9-.6-11.9-2.5-17.4-1-2.9-2.1-5.8-3.3-8.6-1.1-2.7-2.2-5.4-3.4-8-2.4-5.2-5.9-9.7-10.1-13.5-1.9-1.7-3.9-3.2-6-4.6-2.3-1.7-4.7-3.3-7.2-4.8-1.2-.7-2.4-1.4-3.7-2-.4-.2-.8.4-.4.6 4.7 2.3 9 5.5 13.3 8.6 4.3 3.2 8.1 7 11 11.5 1.5 2.3 2.6 4.8 3.7 7.4 1.1 2.6 2.2 5.2 3.3 7.9 2.2 5.3 4.1 10.9 4.7 16.6.3 2.6.3 5.5-.4 8-.3 1.2-1 2.4-2.1 2.9-1.2.5-2.6.2-3.6-.5-2.4-1.6-2.9-4.8-3.5-7.4-.6-3-1.2-6-1.9-9-1.4-5.6-3.3-11.1-6.2-16.1-2.6-4.5-5.8-8.7-9.4-12.4-3.7-3.7-8-6.9-12.6-9.5-2.3-1.3-5.2-2.8-5.6-5.8-.3-3 2.7-4.2 5.2-3.7 1.5.3 2.9.9 4.2 1.5.4.3.8-.4.3-.6zm21.8-34.3c0-2.2-.2-4.4-.4-6.5-.3-2.9-.7-5.8-1.5-8.6-.5-1.6-1.2-4.2-3.1-4.8-1.8-.5-3.7.5-4.9 2-1.3 1.6-1.8 3.7-2.6 5.6-1.6 3.9-3.7 7.9-6.7 10.9-1.1 1.1-2.3 2-3.8 2.7-1.2.6-2.4 1.2-3.5 2-1 .8-1.8 1.8-2 3.1-.3 1.6.2 3.3 1.2 4.5 1.2 1.4 2.9 2.3 4.5 3 2.1.9 4.4 1.6 6.7 1.9 4.1.5 8.1-.5 11.1-3.4 2.6-2.6 4.2-6.1 4.7-9.7.2-.9.3-1.8.3-2.7 0-.5-.7-.5-.7 0-.1 3.5-1.1 7.1-3.1 10-2.2 3.1-5.5 5.1-9.4 5.2-2.2.1-4.4-.3-6.4-1-1.9-.6-3.8-1.3-5.5-2.5-1.5-1.1-2.5-2.5-2.6-4.4 0-1.3.5-2.4 1.4-3.2 1.9-1.7 4.5-2.2 6.4-3.9 3-2.5 5.1-5.9 6.8-9.3.8-1.7 1.5-3.4 2.2-5.2.7-1.9 1.7-4 3.7-4.8 1.1-.4 2.3-.3 3.1.7.6.8.9 1.7 1.2 2.6.8 2.5 1.3 5.2 1.6 7.9.3 2.3.5 4.6.6 6.8v1c0 .5.7.5.7.1z"/><path class="st1" d="M684.4 518.3c-9.4-6.9-18.8-13.8-28.1-20.8-4.7-3.4-9.3-6.9-14-10.3-4.6-3.4-9.2-6.9-13.9-10.3-.9-.7-2-1.3-3.2-1.1-.8.1-1.4.5-1.9 1.2-1.1 1.5-1.1 3.5-.1 5 1.2 2 3.3 3.4 5.1 4.8 2 1.6 4 3.3 6 5 7.9 6.7 15.4 13.7 22.5 21.2 7.2 7.5 14 15.5 20.3 23.7.8 1 1.5 2 2.3 3 .3.4.9 0 .6-.4-6-8-12.4-15.8-19.2-23.2-6.8-7.4-14-14.4-21.5-21.1-3.8-3.3-7.6-6.5-11.5-9.6-1.7-1.3-4-2.8-4.5-5.1-.4-1.8.8-4.3 3-3.7 1.2.3 2.3 1.3 3.3 2.1 1.1.8 2.3 1.7 3.4 2.5 2.3 1.7 4.6 3.4 6.8 5 4.5 3.3 9 6.7 13.6 10 9.1 6.7 18.2 13.4 27.2 20.1 1.1.8 2.3 1.7 3.4 2.5.4.4.8-.2.4-.5zM457.2 417.4c.9-.6.9-1.9.7-2.8-.2-1.7-.9-3.3-1.5-4.8-1.5-3.7-3.4-7.2-5.6-10.5-.7-1-1.3-2.1-2.3-2.8-1.2-1-3-1.9-4.5-.9-1.3.9-1.8 2.7-2 4.1-.2 1.8-.2 3.7.4 5.4.5 1.4 1.3 2.7 2.2 3.8 1.1 1.5 2.3 2.9 3.7 4.2 1.3 1.2 2.7 2.3 4.2 3.2 1.4.9 3.1 1.9 4.7 1.1.4-.2.1-.8-.4-.6-1.4.7-3.2-.7-4.4-1.4-1.3-.8-2.5-1.7-3.6-2.8-2.2-2-4.1-4.4-5.4-7.1-.7-1.4-.8-3.1-.8-4.7.1-1.4.3-3.2 1.3-4.3 1.1-1.2 2.7-.6 3.8.3.9.7 1.6 1.6 2.2 2.6 2 2.9 3.7 6.1 5.1 9.3.8 1.7 1.5 3.4 1.9 5.3.2.7.6 2.3-.2 2.8-.3.2.1.9.5.6zm30.2 135.5c-.9-22.7-2.5-45.7-9.2-67.6-5.8-19.1-15.6-37.1-30.6-50.6-14-12.7-31.2-21.2-48.6-28.4-9-3.7-18.1-7.2-27.2-10.8-10.2-4.1-20.2-8.5-30.4-12.8-20.5-8.6-42.4-16.1-65-14.4-5.4.4-10.7 1.3-15.8 2.9-4.5 1.4-9 3.2-12.8 6.1-6.8 5.2-11.3 15-6.4 23 4.7 7.6 15 9.2 23 11.2 11.3 2.8 22.7 5.4 34.1 7.4 11 1.9 22.2 3.6 32.3 8.3 8.7 4 16.3 10.1 22.4 17.5 6.6 8.1 10.7 17.6 13.5 27.6 3 10.2 4.9 20.6 8.3 30.7 6.2 18.4 16.4 35.5 29.7 49.7 3.3 3.5 6.7 6.9 10.4 10 .4.3.9-.2.5-.5-14.7-12.8-26.5-28.6-34.6-46.3-4.2-9.2-7.2-18.9-9.6-28.7-2.5-9.9-4.8-20-9.1-29.4-3.9-8.5-9.7-16-16.8-22.1-7.3-6.2-15.8-10.5-25-13.2-10.6-3.1-21.7-4.2-32.6-6.4-5.6-1.1-11.2-2.4-16.8-3.8-5.2-1.3-10.4-2.4-15.5-3.9-4.1-1.2-8.4-2.9-11.5-5.9-3.4-3.4-4.6-8.2-3.6-12.9 2.2-10.2 12.1-15.4 21.3-18 21.6-6.1 44.5-1.3 65.1 6.2 10.6 3.9 20.9 8.5 31.3 12.9 9 3.8 18.2 7.4 27.3 11 17.5 6.9 35.2 14.1 50.7 25 7.8 5.4 14.9 11.8 20.9 19.2 6.4 7.9 11.5 16.8 15.4 26.2 8.6 20.3 11.7 42.4 13.1 64.2.4 5.5.6 11.1.9 16.6.2.5.9.5.9 0z"/><path class="st1" d="M476.7 534c-3.7-19.3-8.9-38.3-15.4-56.9-5.5-15.5-11.8-31.9-24.8-42.8-13.1-11-30.5-14.1-46.2-19.5-18.4-6.3-35.7-15.3-53.5-22.9-17.2-7.4-35.3-13.6-54.1-14.5-7.7-.4-17.4-.4-23 5.8-2.2 2.4-3.6 5.7-3.5 8.9.1 3.4 1.9 6.2 4.7 8 3.3 2.1 7.5 2.8 11.3 3.7 4.7 1 9.5 2 14.3 3 9.4 1.9 18.8 3.7 28 6.3 16.2 4.4 32 11.1 44.6 22.5 5.8 5.2 10.7 11.4 14.2 18.5 4.1 8.4 5.8 17.6 7.7 26.7 1.8 8.5 4.1 16.8 7.7 24.7 3.5 7.7 8 15 13.3 21.6 2.6 3.2 5.3 6.2 8.3 9.1.3.3.9-.2.5-.5-12.1-11.7-21.1-26.5-26.1-42.6-2.7-8.7-3.9-17.8-6.3-26.7-2.1-7.9-5.4-15.3-10.3-21.9-9.1-12.1-22.3-20.6-36.2-26.3-17.3-7.1-36-10.1-54.2-13.9-4.2-.9-8.5-1.6-12.5-2.9-3.7-1.2-7.3-3.5-8.2-7.6-.7-3.6.8-7.4 3.1-10 2.8-3.1 7-4.6 11.1-5.2 4.3-.7 8.8-.5 13.2-.3 4.8.3 9.5 1 14.2 1.9 9.1 1.8 18 4.6 26.7 7.9 17.7 6.7 34.4 15.5 51.9 22.7 8.3 3.4 16.8 6.2 25.4 8.8 8 2.4 16.1 5 23.5 8.9 7.4 3.9 13.7 9.3 18.7 16.1 4.9 6.7 8.5 14.2 11.5 21.8 7 17.5 12.4 35.8 16.6 54.2 1 4.6 2 9.1 2.9 13.7.3.4 1 .2.9-.3z"/><path class="st1" d="M464.2 528.2c-6.8-15.8-13.5-31.7-20.3-47.5-3.1-7.1-5.9-14.4-9.4-21.4-3.2-6.3-7.1-12.4-12.3-17.3-5.4-5-12-8.4-18.6-11.4-7.4-3.3-15-6.3-22.5-9.5-15.8-6.6-31.6-13-47.3-19.8-13.7-5.9-27.7-12.1-42.8-13.4-3.2-.3-7.1-.7-10.1.7-2.5 1.2-4.3 3.8-2.7 6.4 1.6 2.4 4.6 4 7.3 4.8 3.7 1.1 7.6 1.3 11.4 1.9 15.9 2.9 30.9 8.9 45.6 15.5 7 3.1 14 6.2 20.7 9.8 6.5 3.5 12.6 7.7 17.3 13.5 8.8 11 11.8 25.3 14.5 38.8 2.7 12.9 5.6 26.6 13.5 37.5 1.8 2.5 4 4.8 6.3 6.9.4.3.9-.2.5-.5-10.2-8.9-14.7-22.1-17.7-34.8-3.1-13.1-4.8-26.7-10.8-38.9-3-6.1-7-11.5-12.3-15.8-5.6-4.5-12-7.8-18.5-10.9-14.1-6.7-28.3-13.3-43.2-17.8-7.5-2.3-15-3.9-22.8-5-3.5-.5-7-1.3-9.7-3.6-1.1-.9-2.3-2.1-2.2-3.6.1-1.8 2.1-3.2 3.7-3.7 1.7-.5 3.5-.6 5.2-.5 1.9.1 3.9.2 5.8.4 3.8.4 7.5 1.1 11.2 2.1 7.2 1.9 14.1 4.6 21 7.4 15 6.3 29.9 12.7 44.9 18.9 7.8 3.3 15.6 6.5 23.4 9.8 6.9 2.9 14 5.7 20.4 9.6 6.3 3.8 11.5 8.9 15.6 15.1 3.9 5.9 6.7 12.4 9.5 18.9 6.6 15.4 13.2 30.9 19.8 46.3 1.6 3.8 3.3 7.6 4.9 11.5.3.4.9 0 .7-.4z"/><path class="st1" d="M421.2 512.5c-6.6-9.7-12.1-20.1-16.5-30.9-4.4-10.8-7.7-22.1-9.8-33.6-.4-2.3-1.5-6.2 1.8-6.9 1.2-.3 2.5 0 3.7.4 1.2.3 2.4.8 3.5 1.3 4.4 2 8.2 5.3 11.3 8.9 3.3 3.9 6 8.2 8.5 12.7 3 5.3 5.7 10.8 8.3 16.3 5.5 11.6 10.5 23.4 15.4 35.2.6 1.4 1.2 2.9 1.8 4.3.2.4.9.2.7-.2-5-12.1-10.1-24.3-15.6-36.2-2.8-6-5.7-11.8-8.8-17.6-2.4-4.6-5.1-9-8.3-13.1-3.1-3.9-6.7-7.5-11.1-10-2.1-1.2-4.5-2.2-6.8-2.7-2.2-.4-4.9-.1-5.6 2.4-.3 1.2-.1 2.4.1 3.6.3 1.5.5 3 .8 4.5.6 3 1.3 5.9 2 8.8 1.5 5.8 3.3 11.6 5.4 17.2 4.2 11.2 9.6 22 16 32.1.8 1.2 1.6 2.5 2.4 3.7.4.6 1.1.2.8-.2z"/><path class="st1" d="M436.3 509.1c-.4-4.8-2-9.3-4.1-13.6-2.1-4.2-4.7-8-7.1-12-1.9-3.3-3.5-6.7-5.3-10-1.7-3.2-3.6-6.6-6.3-9.2-.9-.9-3.8-3.5-5-1.6-.4.7-.4 1.7-.4 2.5.1 1.2.3 2.4.6 3.6 1.6 6.9 4.4 13.5 7.7 19.8 4.4 8.7 9.7 16.9 13.8 25.8.5 1.1 1 2.3 1.5 3.4.2.4.9.2.7-.2-3.5-8.7-8.4-16.7-12.9-24.9-3.7-6.8-7-13.7-9.2-21.2-.7-2.3-1.4-4.7-1.4-7 0-.5 0-1.5.6-1.8.7-.4 1.9.6 2.4 1 2.7 2 4.6 5.2 6.3 8.1 1.9 3.3 3.5 6.7 5.3 10 2 3.6 4.4 7 6.4 10.6 2.3 4.1 4.3 8.4 5.2 13 .2 1.2.4 2.4.5 3.5 0 .7.8.7.7.2zM195.4 85.9c3.3-9.4 6.1-19.2 6.3-29.1.1-4.9-.4-9.8-2.1-14.4-1.8-4.9-4.9-8.9-9-12-4.9-3.8-10.6-6.3-16.5-8.2-5.8-1.9-11.8-3.1-17.9-3.7-12.3-1.2-24.8.2-36.6 4-5.8 1.9-11.4 4.3-16.6 7.3-4 2.3-7.7 5.4-10.7 9-5.7 6.8-9.5 15.7-8.7 24.7.8 9.8 7.2 18.1 15.6 22.8 9.7 5.4 21.3 5.5 32.1 6 5.7.2 11.4.5 17 1.6 2.7.5 5.4 1.2 8 2.2 3 1.1 5.8 2.6 8.6 4 5.3 2.6 11.3 5.3 17.3 3.4 4.9-1.6 8.1-5.9 10.3-10.3 1.1-2.5 2-4.9 2.9-7.3.2-.4-.6-.6-.7-.2-1.7 4.8-3.6 9.8-7.2 13.5-1.8 1.8-4.1 3.2-6.6 3.7-2.9.6-5.9.2-8.8-.8-5.8-1.9-10.9-5.4-16.6-7.3-5.1-1.7-10.6-2.5-16-2.9-10.8-.8-22.1-.1-32.6-3.3-9.6-2.8-18.3-9.8-21.4-19.5-2.7-8.4-.7-17.6 3.8-25 2.4-3.9 5.5-7.4 9-10.3 4.2-3.4 9.1-5.8 14-7.9 11.1-4.8 23.3-7.3 35.4-7.3 6 0 12 .6 17.9 1.9 5.9 1.3 11.8 3.1 17.3 5.8 5 2.5 10 5.8 13.2 10.5 2.7 3.9 4.2 8.6 4.7 13.3 1.2 9.9-1.1 19.9-4 29.3-.6 2.1-1.4 4.2-2.1 6.3-.2.5.5.7.7.2z"/><path class="st1" d="M171.4 4.9c-5.8-1.6-11.7-2.6-17.7-3.1-6.1-.5-12.3-.5-18.5.1-6.1.6-12.2 1.7-18.1 3.3-5.9 1.7-11.6 3.9-17.1 6.7-5.4 2.8-10.4 6.1-15 10-4.6 3.9-8.6 8.4-12 13.4-3.5 5.2-6.2 10.9-8 16.9-2 6.5-2.5 13.4-1.3 20.1 1.2 6.6 3.9 13 8.5 17.9 5 5.5 11.9 8.6 19.2 9.9 8 1.4 16.2.9 24.3 1.2 4.1.1 8.3.5 12.3 1.3 4.2.9 8.3 2.4 12.3 4.2 7.8 3.6 15 8.3 22.9 11.6 7.1 2.9 15 4.8 22.6 3.7 3.7-.5 7.3-1.8 10.4-4 3-2.1 5.4-4.8 7.2-7.9 3.9-6.4 5.7-14 7.3-21.3 1.7-7.8 2.9-15.7 3.3-23.7.4-7.7-.1-15.6-2.2-23.1-2-7.3-5.5-14.2-10.6-19.9-5.3-5.9-12-10.3-19.2-13.5-3.3-1.5-6.9-2.7-10.6-3.8-.5-.1-.7.6-.2.7 7.5 2.1 14.8 5.2 21.2 9.7 6.4 4.5 11.6 10.3 15.2 17.2 3.4 6.8 5.2 14.3 5.7 21.9.6 7.8 0 15.7-1.1 23.4-.6 3.9-1.3 7.7-2.2 11.6-.8 3.7-1.7 7.3-2.8 10.9-2.3 7-5.8 13.9-12.3 17.8-6.6 4.1-14.8 4.2-22.2 2.5-8-1.8-15.3-5.7-22.5-9.6-7.3-3.9-14.8-7.8-23-9.4-7.9-1.5-15.9-1.2-23.9-1.4-7.8-.2-15.9-.9-23-4.7-6-3.2-10.5-8.5-13.2-14.6-2.8-6.2-3.8-13.2-3.1-20 .6-6.4 2.8-12.7 5.7-18.4 2.7-5.3 6.1-10.3 10.2-14.7 4-4.3 8.6-8.1 13.6-11.3 5-3.2 10.4-5.9 16-8 5.7-2.1 11.5-3.7 17.5-4.8 6-1.1 12.1-1.6 18.1-1.6 6 0 12 .5 17.9 1.5 2.8.5 5.6 1.1 8.3 1.9.4.3.6-.4.1-.6z"/><path class="st1" d="M137.6-15.1c-6 6.6-15.1 8.7-23.4 10.4-8.6 1.8-17.3 3.8-25.5 7-8 3.1-15.8 7.2-21.9 13.4-5.9 6-10.2 13.5-13.8 20.9-1.8 3.8-3.5 7.8-5 11.8-1.4 3.7-2.8 7.5-3.7 11.4-2 7.9-2.4 16.3-.4 24.2 1.9 7.7 6.2 14.6 12.7 19.1 6.5 4.5 14.4 6.3 22.1 7.3 8.4 1.1 16.8 1.3 25.1 2.7 4 .7 8 1.7 11.8 3.2 3.8 1.5 7.3 3.5 10.7 5.7 6.8 4.4 13.1 9.5 19.8 14.1 6.3 4.3 13.2 8.2 20.8 9.6 17.5 3.1 33.1-8.2 43.1-21.5 10.9-14.5 17.2-32.4 18.5-50.5 1.3-17.7-2.5-35.4-10.9-51-8-14.8-19.8-27.5-34.1-36.4-3.5-2.2-7.2-4.1-11-5.8-.4-.2-.8.4-.4.6 15.3 6.9 28.6 18 38.3 31.7 10 14 16.1 30.6 17.2 47.8 1.2 18-2.8 36.4-11.4 52.3-4.2 7.8-9.5 15-16.1 20.9-6.5 5.8-14.4 10.4-23.1 11.5-16.4 2.1-29.7-8.9-42-17.9-6.3-4.6-12.8-9.1-20.1-11.9-7.6-2.9-15.7-3.7-23.7-4.4-8-.7-16.2-1.2-24-3.5-7.6-2.3-14.5-6.7-18.8-13.6-4.3-6.9-5.7-15.4-5.3-23.4.4-8.1 2.9-15.7 5.9-23.2 3.1-8 6.8-15.8 11.7-23 2.2-3.3 4.7-6.4 7.6-9.1 3.2-3 6.8-5.4 10.6-7.5 7.7-4.3 16.3-7 24.8-9.1 8.1-2 16.7-3 24.5-6.3 3.7-1.6 7.1-3.7 9.8-6.7.4-.7-.1-1.2-.4-.8z"/><path class="st1" d="M103.4-15.1c-16 3.4-30.9 11.2-43.3 21.9-12.3 10.7-22.2 24.3-28.4 39.4-3.1 7.5-5.2 15.5-6.2 23.5-1.1 8.7-1 17.8 1.5 26.2 2.5 8.3 7.6 15.3 15 19.8 7.3 4.4 15.8 6.3 24.1 7.6 9.4 1.6 18.7 2.7 27.9 5.4 10 2.9 19.6 7 28.6 12.2 8.5 4.9 16.2 11.1 24.8 15.9 7.9 4.5 16.5 7.4 25.6 7.3 17.1-.1 33.3-9.4 44.3-22.1 12.5-14.4 18.4-33.5 21.1-52.2 1.5-9.9 2.1-20 2.3-30 .2-10.6-.3-21.2-2.4-31.6-3.5-17.7-11.9-35-26.6-46-3.4-2.5-7-4.7-10.9-6.3-.4-.2-.8.5-.4.6 16.1 6.9 27.4 21.8 33.3 38 7 19.5 6.9 40.9 5.4 61.2-1.5 19.1-5.2 38.7-15.1 55.4-8.8 14.8-23.1 26.8-40.1 30.9-8.3 2-17 1.9-25.2-.8-9.1-3-17.1-8.6-24.9-13.9-8.2-5.5-16.6-10.5-25.7-14.3-9.1-3.8-18.6-6.5-28.3-8.2-16.2-2.8-35.9-3.5-46.7-17.8-5.4-7.1-7.4-16.2-7.7-25-.3-8.3 1-16.7 3.2-24.8 4.3-15.7 12.6-30.1 23.7-42 11-11.8 24.8-21.2 40-26.5 3.7-1.3 7.4-2.3 11.2-3.1.6-.1.4-.8-.1-.7z"/><path class="st1" d="M293.9-19.3c6.5 8.9 14.6 16.5 23.9 22.3 4.6 2.9 9.6 5.4 14.7 7.4 5.7 2.2 11.7 3.5 17.3 5.9 5.4 2.4 10.5 6.2 12.5 12 .4 1.3.7 2.6.7 4 0 .8 0 1.6-.3 2.3-.5.8-1.5 1.5-2.2 2.2-2.6 2.4-5.1 4.7-7.7 7.1-10.2 9.4-20.5 18.8-30.7 28.2-8.7 8-17.9 16-24.3 26.1-6.7 10.6-8.9 23-11.9 35-2.9 11.4-9.7 21.2-13.8 32.1-4 10.3-4.7 21.6-1.8 32.3 1.4 5.2 3.7 10.2 6.8 14.7 3.1 4.5 7.9 8.1 9.9 13.3 2.3 5.9-1.6 10.5-6.5 13.3-5.1 2.9-10.9 4.9-16.6 6.3-11.7 2.9-24.3 3.1-35.7-1-10.1-3.6-18.8-10.6-24.3-19.8-5.4-9.1-7.4-19.9-4.4-30.1 3.4-11.4 11.6-20.4 18.6-29.7 14.4-18.9 25.8-40.2 32.6-63.1 6.4-21.7 8.3-44.6 4.2-66.9-3.8-21-12.8-41.3-26.8-57.5-3.4-4-7.2-7.7-11.2-11.2-.4-.3-.9.2-.5.5C233.3-19.1 245 .7 251.1 22c6.4 22.3 6.6 45.8 1.6 68.4-5.2 23.7-15.9 46.1-29.6 66-6.7 9.7-15 18.4-20.6 28.9-2.6 4.8-4.5 10.1-5.1 15.6-.5 4.9.1 9.8 1.5 14.5 2.9 9.5 9.3 18 17.4 23.7 9.3 6.6 20.9 9.3 32.1 9 5.9-.1 11.7-1.1 17.4-2.6 5.5-1.5 11.2-3.5 16-6.5 3.9-2.5 7.2-6.3 6.4-11.1-.8-5.2-5.1-9-8.3-12.8-7.4-8.8-11-20.5-10.8-31.9.1-5.9 1.3-11.6 3.4-17.1 2.1-5.6 5-10.9 7.6-16.3 2.6-5.2 4.9-10.6 6.4-16.2 1.6-6.2 2.8-12.4 4.7-18.5 1.9-6.2 4.4-12.2 8.1-17.6 3.4-5.1 7.5-9.6 11.8-13.9 9.5-9.5 19.7-18.3 29.6-27.4 5.2-4.8 10.4-9.5 15.5-14.3 1.3-1.2 2.6-2.4 3.8-3.5.5-.5 1.1-1 1.6-1.5s1.4-1 1.7-1.6c.4-.9.3-2.5.2-3.4-.1-1.3-.4-2.5-.8-3.7-4.3-11.5-17.5-13.6-27.7-17.1C324.3 6.8 314.3.7 305.8-7c-4.2-3.8-7.9-8-11.3-12.6-.2-.4-.9-.1-.6.3z"/><path class="st1" d="M253.1-2.5c12.5 16.7 20.8 36.8 22.8 57.6.9 10.3.3 20.7-2.2 30.7-2.7 11-7.7 21.2-13.5 30.8-6.1 10.1-13 19.8-19.6 29.6-7.1 10.4-14.2 20.8-21.3 31.3-5.8 8.5-12.6 17.7-12.5 28.5.1 8.1 4.1 15.6 9.8 21.1 12 11.6 32.1 15.6 45.8 4.6 3.2-2.6 6.3-6.6 5.9-11-.5-4-3.6-7.2-6-10.2-3.4-4.2-5.9-8.8-7.2-14-1.3-5.1-1.7-10.5-1.3-15.7.9-11.9 5.7-23.1 10.4-33.9 4.8-10.8 9.5-21.7 14.7-32.3 10.3-20.8 22.6-41.1 39.4-57.2 6.6-6.3 17.1-10.2 20.1-19.6 1.3-4.1 1-8.9-1.7-12.4-2.4-3-6.1-4-9.7-4.6-2-.3-4-.6-6-1-2.5-.6-4.9-1.6-7.2-2.7-5.2-2.5-10-5.7-14.5-9.3-8.1-6.5-15-14.5-19.9-23.7-2.4-4.5-4.3-9.2-5.7-14.1-.1-.5-.8-.3-.7.2 5.5 19.6 19.7 36.2 37.4 45.9 4.1 2.3 8.4 4.1 13 4.8 3.8.6 8.1.9 11.3 3.4 4 3.2 4.5 9 2.9 13.6-1.7 4.9-5.9 8.2-9.9 11.2-3.9 2.9-7.9 5.6-11.4 9.1-4 4-7.7 8.2-11.3 12.6-7.2 8.8-13.3 18.3-18.9 28.2-5.7 10.1-10.7 20.6-15.4 31.1-4.7 10.4-9.7 20.9-13.5 31.8-3.5 10-5.5 20.6-3.7 31.2.8 4.8 2.5 9.6 5.1 13.7 2.4 3.8 6 6.9 8 11 2.3 4.7-.5 9.4-4.1 12.6-3.6 3.2-8.2 5.2-12.9 6.3-8.3 1.9-17.2-.1-24.5-4.2-7.3-4.1-13.6-10.6-16.3-18.7-1.5-4.4-1.7-9-.8-13.5 1.1-5.4 3.8-10.3 6.7-14.9 6.5-10.2 13.6-20.1 20.4-30.1 6.7-9.9 13.6-19.7 20.1-29.7 6-9.2 11.7-18.7 15.7-29 3.7-9.5 5.7-19.6 6-29.8.6-20.1-5.2-40.1-15.1-57.5-2.5-4.3-5.2-8.4-8.1-12.4-.3-.2-.9.2-.6.6z"/><path class="st1" d="M257.1 217.9c.5-1.4.6-2.9-.1-4.2-.7-1.4-1.9-2.5-3.1-3.3-3.1-2.3-6.7-3.8-9.9-6-1.4-1-2.8-2.1-3.6-3.6-1.6-2.6-2.1-5.9-2.9-8.8-1.3-4.6-4.2-10.1-9.8-9.8-3.3.2-5.5 2.6-6.7 5.5-1.5 3.4-1.9 7.2-2.1 10.9-.1 3.4-.1 7.1.8 10.4 1.3 4.7 4.4 8.7 8.3 11.6 4 2.9 8.9 4.6 13.9 4.9 4.7.3 10.2-.9 13.5-4.7.7-.9 1.3-1.8 1.7-2.9.2-.4-.5-.6-.7-.2-1.9 4.6-7.1 6.7-11.8 7-4.8.3-9.7-.9-13.8-3.2-4.1-2.3-7.7-5.8-9.5-10.2-1.4-3.3-1.7-6.9-1.7-10.5 0-3.6.3-7.2 1.3-10.6.8-2.8 2.3-6 5.3-7 1.8-.6 3.8-.3 5.4.7 2.2 1.4 3.7 3.8 4.6 6.2 1.6 4.5 1.8 10 5.5 13.4 2.7 2.4 6.1 4 9.2 5.8 2.3 1.4 5.8 3.3 5.9 6.4 0 .7-.1 1.4-.4 2-.2.4.6.6.7.2zm36.1-155.8c5 3 10.3-2.2 13.2-5.9 1.6-2.1 2.9-4.4 3.7-6.9 1.1-3.6 1.2-7.5.7-11.2-.5-3.6-1.6-7.3-3.4-10.5-.4-.8-1.1-1.5-1.7-2.2-2.4-2.8-5.1-5.4-7.8-7.9-3.5-3.3-7.1-6.6-10.9-9.7-3.3-2.7-6.8-5.4-10.5-7.6-1.3-.8-2.7-1.5-4.1-1.9-.9-.3-2-.5-2.9 0-1 .5-1.6 1.6-1.9 2.6-.5 1.5-.4 3.2 0 4.7.9 3.3 3.3 6.1 5.4 8.7 2.4 2.9 4.7 5.7 6.9 8.7 2.4 3.2 4.7 6.6 6.4 10.3.9 1.9 1.6 3.9 2.1 6 .5 2.2.7 4.4.8 6.7.2 4.2.1 8.6 1.5 12.7.5 1.3 1.3 2.6 2.5 3.4.4.3.8-.4.4-.6-1.5-.9-2.1-2.6-2.5-4.2-.5-2.1-.8-4.2-.9-6.3-.3-4.1-.2-8.3-1.2-12.3-1.9-7.5-6.8-13.8-11.4-19.8-2.1-2.7-4.4-5.2-6.3-8-1.9-2.6-3.8-5.8-3-9.2.2-1 .8-2.3 1.8-2.8.3-.1.7-.2 1.1-.1 1.2.1 2.3.6 3.4 1.1 3.5 1.7 6.6 4.1 9.6 6.4 3.7 2.9 7.2 5.9 10.6 9.1 3 2.7 5.9 5.5 8.6 8.4.9 1 1.8 1.9 2.6 2.9 1.1 1.4 1.8 3 2.4 4.7 2.4 6.4 3 14.2-.2 20.4-1.2 2.3-2.8 4.5-4.6 6.4-1.8 1.8-4.1 3.6-6.7 3.9-1.2.1-2.3-.1-3.3-.8-.4-.1-.8.6-.4.8z"/><path class="st1" d="M47.5-16.3c5 22.7-15 39.8-26.6 56.5-5.8 8.3-9.8 17.5-10.5 27.7-.6 10.1 1.8 20.1 6 29.2 3.9 8.4 9.1 16.4 14.9 23.7 5.6 6.9 12 12.9 20.4 16.1 18 7 37.8 1.8 56 6.8 16.8 4.6 28.9 18.3 44.4 25.4 3.7 1.7 7.7 3 11.7 3.9 4.9 1 10.1 1.4 14.6 3.7 8.2 4.1 9.9 13.6 10.7 21.9.7 7.5.6 15.3 2.7 22.6 2.4 8.2 6.6 16 12.2 22.5 12.6 14.5 32.5 21.4 51.4 17.3 10-2.2 18.5-8.4 28.3-11.1 10.9-2.9 22.2.2 31.6 6 9.2 5.8 17 13.7 24.7 21.4 7.7 7.7 15.8 15.1 23.5 22.8 8.1 8.1 15.8 16.5 23.3 25.1 3.4 3.9 6.7 8 10.4 11.5 3.1 2.9 6.4 5.4 9.6 8.1 3.2 2.7 6.3 5.6 8.7 9 2.6 3.7 5.4 9.1 4.7 13.8-1.4 8.7-12.1.1-15.7-2.3-4.6-3-9.3-6-14-9-18.3-11.6-37.3-21.8-58.3-27.5-21-5.7-43.4-7.4-64.7-2.2-33.5 8.2-64.5 36.6-63.9 73.1.2 16.2 6.5 32.7 18.5 43.8 14.6 13.6 35 15 53.2 20.7 33.4 10.5 56.6 43.3 57.9 77.9.3 8.3-.7 16.7-3.1 24.7-.1.5.6.7.7.2 9.3-31.3-2.7-66.7-27.1-87.8-6-5.2-12.8-9.6-20.2-12.7-9-3.9-18.7-5.8-28.1-8.1-10-2.5-20.2-5.6-28.6-11.8-7.1-5.3-12.7-12.5-16.4-20.4-7.9-16.6-8-36.2-.6-53 7.6-17 21.9-30.4 38.4-38.7 41.4-20.7 90.7-7.5 128.6 14.4 9.4 5.5 18.5 11.4 27.7 17.3 3.3 2.2 7.7 6.3 12 6 2.9-.2 4.4-2.7 4.5-5.3.3-7.7-5.5-15.2-10.8-20.1-3-2.8-6.3-5.3-9.5-8-3.5-2.9-6.5-6.2-9.5-9.6-7.5-8.6-15.1-17.2-23.1-25.4-7.8-8-16.2-15.4-24.1-23.4-13.5-13.6-28.6-30.7-49-32.3-10.1-.8-18.8 3.7-27.7 7.8-10.5 4.8-21.4 6.7-32.9 4.6-20.3-3.8-35.9-19.5-41.8-39-2.3-7.8-2.1-16-2.9-23.9-.7-6.7-2.1-14.2-7.3-18.9-6.6-5.9-16.6-5.2-24.6-7.9-8.5-2.9-16-7.9-23.3-13.1-6.7-4.7-13.3-9.4-20.9-12.5-8.2-3.4-17-4-25.8-4.3-9.9-.3-19.9-.2-29.6-2.5-9.9-2.4-17.7-7.8-24.3-15.4-13.7-16.1-25.5-37.4-22.3-58.9 3.2-21.9 22.4-35.2 32-53.9 4.2-8.2 6.6-17.4 4.6-26.6-.1-.5-.8-.3-.7.1zm111.7 83.7c3-1 5.6-3.5 6.5-6.5.7-2.5.2-5-1.4-7-2.8-3.7-7.8-5.5-12.2-5.8-4.3-.3-9.3.7-11.7 4.6-1.2 2-1.6 4.5-1 6.8.7 2.2 2.2 3.9 4 5.1 3.9 2.8 9.4 4 14.1 3.2.7-.2 1.2-.3 1.7-.4.5-.1.3-.9-.2-.7-4.2 1.3-9.3.4-13.2-1.6-1.9-1-3.7-2.3-4.9-4.2-1.1-1.9-1.3-4-.7-6.1 1.4-4.3 5.6-6 9.8-6.1 4.3-.1 9 1.2 12.3 4.1 1.5 1.3 2.6 3 2.9 5 .4 3.2-1.5 6.3-4.1 7.9-.7.4-1.4.8-2.2 1-.3.1-.1.8.3.7zM-26 29.3c7.6 4.4 15.6 8.8 24.6 9.6 4.2.4 8.6-.1 12.5-1.7 3.7-1.5 6.8-4.1 9.5-7 2.8-3 5.1-6.5 7.1-10 2.1-3.7 3.8-7.7 4.9-11.8 2-7.6 1.8-15.8-2.3-22.7C26.9-20.2 21-25 14-25.7c-.7-.3-1.6-.3-2.5-.3-.5 0-.5.8 0 .7 6.9-.3 13.2 3.7 17 9.2 2 2.8 3.4 6 4.1 9.4.8 4 .7 8.2-.1 12.1-1.6 8-5.6 15.7-10.7 22-2.4 3-5.2 5.7-8.6 7.6-3.6 2.1-7.8 3-11.9 3-8.7 0-16.7-3.8-24.2-8-.9-.5-1.9-1.1-2.8-1.6-.3 0-.7.6-.3.9z"/><path class="st1" d="M-14.7 14.3c6.1.6 11.4 4 17.3 5.6 4.9 1.4 10.7 1.5 14.6-2.3 3-2.9 4.2-7.2 4-11.3-.3-4.7-2.4-8.8-5.5-12.3-4-4.5-9.3-7.6-14.5-10.5-.4-.2-.8.4-.4.6 8.1 4.7 18 10.5 19.4 20.6.6 4-.2 8.5-2.9 11.6-3.5 4-9.1 4.2-13.9 3-6.2-1.5-11.7-5.2-18.2-5.8-.4 0-.4.8.1.8zm-8 40.8c4.1-5.2 11.7-5.3 17.2-2.2 6.6 3.7 9.2 11.6 9.8 18.7.7 8-.9 15.9-1.1 23.8-.1 6.6 1 13 3.5 19 10.7 25.5 38.3 37.1 63.6 42.3 28.5 5.9 59.6 6.9 84.2 24.3 5.6 3.9 10.6 8.7 14.5 14.2 4.3 5.9 7.2 12.7 9.5 19.5 4.5 13.2 7.1 27.5 15.4 39 7.2 10.1 18.3 17.2 30.3 20 5.9 1.4 12.1 1.7 18.1.9 7.7-1.1 15-4 22.5-5.7 7.1-1.6 14.3-1.9 21.1 1.3 5.6 2.7 10.5 7.8 10.3 14.4-.4 13.4-17.6 18.1-27.7 21.9-25.2 9.5-49.5 24.5-64.8 47.2-14.4 21.5-19.3 50.9-7.9 74.8 12.2 25.5 40 36.8 64.6 46.8 26.4 10.9 56.9 25.3 63.4 56.2 1.4 6.8 1.2 13.8-.9 20.4-.1.5.6.7.7.2 3.9-12.6 1-25.9-5.5-37.1-7.2-12.2-18.2-21.2-30.5-28-25.6-14.2-56.6-20-78.2-41.1-10.4-10.2-16.8-23.3-18.5-37.8-1.7-14.2 1-28.8 6.9-41.8 12-26.5 37-44.6 63.1-55.8 10.7-4.6 25-7.2 32.7-16.7 3.1-3.8 4.4-8.8 2.9-13.5-1.5-5-5.8-8.6-10.4-10.7-13.1-6.1-26.7.9-39.7 3.8-13.9 3-28.6-.1-40.2-8.4-12.6-8.9-18.3-22.5-22.6-36.7-4-13.3-7.7-26.8-17-37.4-18.9-21.7-49.2-26.8-76.1-31.2-28.9-4.7-61.4-11-78.6-37.4-3.5-5.4-6.1-11.4-7.2-17.8-1.4-8.4.1-16.7.6-25.1.6-11.4-2.3-26.7-15.7-29-4.7-.8-9.6.4-12.7 4.2-.4.4.1.9.4.5z"/><path class="st1" d="M365 333.8c1.6 1.1 3.4 2.2 5.5 1.9 1.5-.2 2.7-1.2 3.5-2.4.9-1.3 1.3-2.9 1.2-4.5-.1-1.8-1-3.5-2.1-5-1.2-1.6-2.7-2.9-4.2-4.2l-5.7-4.8c-3.8-3.3-7.7-6.5-11.5-9.8-6.9-5.9-13.9-11.6-20.2-18.2-3.1-3.2-5.9-6.7-8.4-10.4-2.2-3.3-4-7-7.1-9.6-2.4-2-5.8-3-8.8-2-2.9.9-4.6 3.6-4.4 6.5.2 2.9 2 5.4 3.5 7.9 1.4 2.5 2.7 5.3 1.6 8.2-1.8 4.6-7.4 6.4-9.3 11-1.1 2.6-.5 5.9 1 8.2 2 3.1 5.6 4.7 8.9 6.1 8.7 3.6 18 4.7 27.2 6.4 4.4.8 8.6 2.3 12.6 4.3s7.7 4.4 11.4 6.8c1.7 1.2 3.5 2.4 5.3 3.6.4.3.8-.4.4-.6-7-4.6-14-9.6-21.9-12.6-4.1-1.6-8.4-2.2-12.7-3-4.3-.7-8.7-1.5-12.9-2.5-4.2-1.1-8.4-2.4-12.2-4.4-1.6-.8-3.1-1.8-4.4-3.1-1.2-1.3-2-2.9-2.3-4.6-.5-2.5.3-4.8 2-6.7 1.6-1.8 3.5-3.2 5.2-4.9 1.7-1.7 3-3.8 3-6.3-.1-2.8-1.7-5.3-3.1-7.7-1.4-2.3-3-5-2.3-7.8.7-3.2 3.9-4.6 6.9-4.3 3.7.4 6.4 3.2 8.4 6.1 1.1 1.6 2.1 3.3 3.2 5 1.1 1.7 2.3 3.4 3.6 5 5.3 6.7 11.6 12.4 18 17.9 7.2 6.2 14.4 12.3 21.7 18.5 1.7 1.4 3.4 2.8 4.9 4.3 1.4 1.4 2.8 2.9 3.5 4.8 1.1 2.8.2 7.1-3.1 8-2 .6-3.9-.7-5.5-1.7-.4-.3-.8.4-.4.6z"/><path class="st1" d="M316.2 298.7c0 2.7 2.6 4.8 4.7 6.1 2.2 1.3 5.3 2.5 7.8 1.3 1-.5 1.9-1.5 2.1-2.7.2-1.2-.1-2.4-.6-3.4-1.3-2.4-3.7-4.5-6.2-5.5-1.5-.6-3-.8-4.5-.2-1.9.8-3.3 2.4-3.3 4.4 0 .5.7.5.7 0 0-1.7 1.4-3.2 3-3.8 1.1-.4 2.3-.3 3.4.1 2.3.8 4.4 2.5 5.7 4.6 1.1 1.8 1.6 4.2-.4 5.6-2 1.3-4.8.3-6.7-.7-2.1-1.1-5-3.2-5-5.8 0-.5-.7-.5-.7 0zM-3.2 341.1c6.5-10.5 13.5-20.7 22.2-29.5 8.6-8.7 18.9-15.8 30.6-19.6 11-3.5 23.3-4 34.1.7 9.4 4.1 17.6 11.8 21.4 21.5 1.9 4.9 2.6 10.2 1.9 15.4-.7 5.6-2.8 10.9-5.8 15.6-6.2 10.2-15.5 17.7-25.1 24.4-9.9 7-20.3 13.6-28.5 22.6-4.1 4.5-7.5 9.6-11.4 14.3-3.8 4.7-8 8.9-13.2 12-9.9 6-21.8 8-33.3 7.4-13.3-.7-26.2-4.9-38.6-9.5-3.1-1.2-6.1-2.4-9.2-3.5-.4-.2-.6.5-.2.7 12.8 5 25.8 10.1 39.5 12.2 11.7 1.8 24.1 1.3 35.2-3.2 5.4-2.2 10.3-5.2 14.5-9.2 4.5-4.3 8.2-9.3 11.9-14.2 3.9-5 8-9.6 12.8-13.7 4.8-4.1 10.1-7.8 15.3-11.4 9.9-6.9 19.9-13.8 27.3-23.4 6.8-8.7 11.2-19.6 9.3-30.7-1.8-10.2-8.6-19-17.1-24.6-9.5-6.3-21-8.1-32.2-6.3-12.1 1.9-23.4 7.7-32.8 15.5-9.6 8-17.4 17.9-24.3 28.2-1.7 2.6-3.3 5.1-5 7.8-.2.6.5.9.7.5z"/><path class="st1" d="M-13.3 360.7c9-3.6 16.3-10.1 22.8-17.2 6.6-7.2 12.4-15.1 19.2-22 6.5-6.6 14.2-12.5 23.4-14.8 7.8-1.9 16.7-1.4 23.6 3.2 3.5 2.3 6.3 5.7 7.9 9.6 1.7 4.1 2.1 8.5 1.7 12.8-.5 4.4-1.8 8.8-4 12.7-2.3 4.2-5.4 7.9-8.9 11.2-7.2 6.8-15.9 11.6-24.4 16.6-8.6 5.1-17.2 10.4-23.8 18-6.2 7.1-10.9 16-20.1 19.8-8.8 3.6-18.9 2.2-27.7-.7-2.2-.7-4.5-1.6-6.6-2.5-.4-.2-.8.5-.4.6 8.7 3.7 18.5 6.4 28.1 5.1 4.6-.6 9-2.3 12.8-5.2 3.8-2.9 6.7-6.7 9.6-10.4 3.1-4 6.2-7.9 10-11.3 3.9-3.4 8.1-6.4 12.5-9.1 8.5-5.3 17.6-9.9 25.6-16.1 7.5-5.8 14.1-13.1 16.9-22.3 2.5-8.3 2-18-3.6-25-5.2-6.5-13.6-9.1-21.7-8.9-4.2.1-8.4 1-12.3 2.6-4.3 1.7-8.3 4.3-12 7.2-7.8 6.2-14 14.1-20.4 21.7-6.7 7.7-13.4 15.3-22 20.4-2.1 1.2-4.2 2.3-6.5 3.2-.4.2-.2 1 .3.8z"/><path class="st1" d="M-23.2 374.8c7.4-1.6 14.6-4.3 21.2-8.1 6.6-3.7 12.7-8.5 17.9-14 2.7-2.8 5-5.9 7.3-9 2.3-3.2 4.5-6.5 7.1-9.6 2.4-2.9 5.1-5.7 8.3-7.8 2.8-1.7 6-2.9 9.2-3.3 3.1-.4 6.4-.1 9.2 1.3 3 1.4 5.2 4 6.3 7.1 2.2 6.7-1.1 14.4-5.8 19.3-5.6 5.9-13.1 9.4-19.6 14.2-6.6 4.9-11.8 11.2-17.3 17.2-5.3 5.9-10.8 11.6-17.9 15.2-6.4 3.3-14.1 5.2-21.2 3.1-1.7-.5-3.3-1.2-4.8-2.2-.4-.3-.8.4-.4.6 6.3 3.9 14 3.8 20.9 1.5 3.6-1.2 7-2.9 10.2-5.1 3.3-2.2 6.3-4.9 9-7.8 5.9-6 11-12.6 17.2-18.3 3.1-2.8 6.5-5.3 10-7.5 3.4-2.2 6.9-4.4 10.2-6.9 3-2.4 5.7-5.1 7.7-8.4 1.8-3 2.9-6.5 3.1-10 .1-3.4-.8-6.7-2.9-9.4-1.9-2.4-4.8-4-7.8-4.6-6.5-1.4-13.4 1-18.4 5.1-6.2 5.1-10.3 12.2-15.1 18.5-4.8 6.3-10.6 11.8-17.1 16.3-6.5 4.5-13.6 7.9-21.2 10.2-1.8.5-3.7 1-5.6 1.4-.3.4-.1 1.1.3 1z"/><path class="st1" d="M-21.7 386.5c11.9-.9 23.3-5.4 32.8-12.6 4.7-3.5 8.9-7.6 12.5-12.2 1.8-2.4 3.5-4.8 4.9-7.4.7-1.3 1.4-2.7 2.1-4 .6-1.4 1.2-2.8 2-4.2 1.3-2.4 3.6-4.6 6.6-3.9 1.2.3 2.3 1.1 2.5 2.4.3 1.8-.7 3.5-1.5 5-2.8 5.3-6.2 10.4-10.2 14.9-7.8 9.1-17.6 16.5-28.4 21.7-10.8 5.2-22.7 8.2-34.8 8.4-1.5 0-3 0-4.5-.1-.5 0-.5.7 0 .7 12.2.5 24.4-1.9 35.7-6.7 11.3-4.8 21.6-11.9 29.9-20.8 4.2-4.4 7.9-9.3 10.9-14.6.8-1.3 1.5-2.7 2.2-4.1.7-1.5 1.5-3.1 1.2-4.8-.5-2.5-3.2-3.3-5.4-2.9-3 .6-4.6 3.3-5.8 5.9-1.3 2.8-2.5 5.5-4.1 8.1-3.1 5.2-7.1 10-11.6 14.1-9.1 8.2-20.5 13.8-32.6 15.7-1.5.2-3 .4-4.5.5-.4.2-.4.9.1.9zm259.4-77c3.2-.9 6.4-2.1 9.6-3.4 4.3-1.8 8.6-3.7 12.6-6.1 3.6-2.1 7.2-4.6 9.7-8.1 1.7-2.4 2.8-6 1-8.6-1.6-2.4-5-2.7-7.6-2.6-4.2.1-8.3 1.2-12.3 2.4-4.3 1.3-8.6 2.8-12.8 4.5-3 1.2-6.1 2.5-9.1 3.7-4.6 1.8-10.6 4.6-10.8 10.3-.1 2.9 1.7 5.6 4.1 7.2 2.9 2.1 6.6 2.4 10 2 1.9-.3 3.7-.8 5.6-1.3.5-.1.3-.8-.2-.7-3.7 1.1-7.7 1.9-11.5 1-2.9-.7-5.6-2.8-6.7-5.6-1.1-2.8-.2-5.6 1.9-7.7 2-2 4.7-3.3 7.4-4.3s5.3-2.2 7.9-3.2c3.9-1.6 7.9-3.1 12-4.4 3.9-1.3 8-2.4 12.1-2.9 2.7-.3 6.3-.6 8.6 1.2 2.3 1.8 1.9 5.2.7 7.5-1.8 3.4-5.1 5.9-8.3 7.9-3.8 2.5-7.9 4.5-12.1 6.3-3.3 1.4-6.8 2.7-10.2 3.9-.5.2-1.1.3-1.6.5-.7-.1-.5.6 0 .5zM-16 121.9c12.2 15.9 27.9 29 45.6 38.4 8.8 4.6 18 8.3 27.5 11 11 3 22.3 4.4 33.6 5.7 21.3 2.5 44.9 5.8 60.7 21.9 7.6 7.7 11.3 17.7 14.8 27.7 3.3 9.5 6.8 18.7 13.3 26.5 6.4 7.6 14.4 13.7 20.6 21.4 6.9 8.7 9.9 19.1 9.3 30.2-1.4 23.6-16.5 42.7-25.6 63.6-7.6 17.5-10.1 37-5.5 55.6 2.2 9.1 6.1 17.8 11.7 25.2 5.6 7.5 12.8 13.5 20.8 18.3 17.2 10.4 37 15 55.7 21.9 17.5 6.4 35.7 15.4 46.8 31 2.7 3.8 4.8 7.9 6.4 12.2.2.4.9.3.7-.2-6.3-17.3-21.4-28.9-37.5-36.8-17.7-8.7-37.1-13-55.3-20.5-9.4-3.9-18.5-8.6-26.3-15.1-7.6-6.3-13.7-14.2-17.9-23.2-8.3-18-8.8-39.2-3-57.9 6.7-21.4 21.7-39.2 27.4-61 2.6-10 3.4-20.9 0-30.8-3.1-9.3-9.9-16.4-16.8-23.1-7.5-7.2-14.6-14.3-19-23.9-4.3-9.3-6.6-19.4-11.1-28.7-9-18.3-27.7-27.6-46.9-31.6-12.1-2.6-24.4-3.4-36.7-5.2-10.7-1.5-21.2-3.9-31.3-7.7-19.4-7.2-37.1-18.8-51.4-33.6-3.6-3.7-7-7.6-10.1-11.7-.1-.3-.8 0-.5.4z"/><path class="st1" d="M-13.3 333c5.1-5.8 10.2-11.6 15.3-17.3 4.7-5.3 9.3-10.7 14.1-15.9 4.3-4.6 8.9-9.1 14.2-12.5 5.6-3.7 11.9-6 18.6-6.8 7.2-.8 14.4-.1 21.5 1.1 6.3 1 12.6 2.2 18.9 3.7 11.5 2.8 23.2 7.6 29.3 18.4 5.9 10.4 5.6 23.5 1.3 34.4-4.7 12.1-13.6 22-23.2 30.5-10.4 9.3-21.9 17.3-31.7 27.3-9 9.1-16 19.9-24.7 29.3-4.3 4.6-8.9 8.8-14.2 12.2-5.1 3.2-10.7 5.5-16.5 6.9-11.7 2.8-24.3 2.1-35.5-2.3-2.7-1.1-5.4-2.4-7.9-3.9-.4-.2-.8.4-.4.6 10.4 6.2 22.8 8.8 34.9 7.8 6-.5 12-1.9 17.6-4.2 5.7-2.3 10.8-5.6 15.5-9.6 9.9-8.4 17.2-19.3 25.5-29.2 4.5-5.3 9.4-10.1 14.6-14.7 5.4-4.7 11.1-9.1 16.6-13.7 10.1-8.4 20.1-17.6 26.6-29.2 5.9-10.5 8.6-23.1 5.3-34.9-1.6-5.7-4.5-10.8-8.8-14.9-4.3-4.1-9.6-6.8-15.1-8.8-5.7-2.1-11.7-3.4-17.7-4.5-6.9-1.3-13.9-2.6-21-3.1-7-.4-14.2.1-20.9 2.6-5.9 2.2-11.2 5.8-15.8 10-4.9 4.3-9.2 9.2-13.5 14.1-5.5 5.6-10.7 11.5-15.9 17.4-2.5 2.9-5.1 5.7-7.6 8.6-.2.4.3.9.6.6z"/><path class="st1" d="M-6.3 143.8c11.1 10.6 23.7 19.6 37.4 26.7 13.6 7.1 28.3 12.2 43.4 15.2 7.8 1.5 15.6 2.3 23.5 3.3 8.3 1.1 16.7 2.7 24.1 6.6 7.1 3.7 13 9.2 18.4 14.9 5.6 5.9 11.2 12 16.2 18.4 4.8 6.3 9 13.3 10.9 21 1.8 7.2 1.6 15.2-1.6 22-6.2 13.1-21.9 17.3-35.2 15.8-8.6-.9-16.8-3.9-24.8-7-7.8-3-15.6-6.2-23.7-8.4-15.6-4.2-32.5-5.6-48-.4-13.1 4.4-23.7 13.4-33 23.4-9.4 10.2-17.6 21.4-27.4 31.3-2.3 2.4-4.7 4.6-7.2 6.8-.4.3.2.8.5.5 10.6-9.1 19.2-20.2 28.2-30.8 8.9-10.4 18.5-20.5 30.7-26.9 14.8-7.6 31.9-8.1 48-5 8.3 1.6 16.3 4.3 24.1 7.3 8.1 3.1 16 6.5 24.5 8.6 13 3.1 28.8 2.5 38.9-7.6 10.7-10.7 9.2-27.7 2.8-40.1-3.7-7.2-8.9-13.5-14.3-19.6-5.3-6-10.7-12.1-16.8-17.4-6.1-5.3-12.9-9.2-20.7-11.4-7.9-2.2-16.1-3-24.2-4-15.8-1.9-31.1-5.8-45.7-12-14.4-6.1-27.9-14.3-39.9-24.3-2.9-2.4-5.7-4.9-8.5-7.5-.4-.2-.9.3-.6.6z"/><path class="st1" d="M-20.3 147.5c11 10.5 22.5 20.6 35.1 29.2 6.3 4.3 12.9 8.1 19.9 11.3 7.2 3.3 14.7 5.8 22.4 7.8 16 4.1 32.5 5.9 48.4 10.4 12.9 3.6 25.8 9.3 35.9 18.3 9.6 8.6 16.8 20.7 15.9 33.9-.4 6.1-2.7 12.1-7.4 16.1-5.6 4.8-13.6 5.9-20.7 4.9-8.2-1.2-15.7-4.9-23.2-8.2-7.5-3.3-15.1-6.4-23-8.9-14.5-4.7-30-7.3-45.2-4.7-12.7 2.1-25.3 7.8-34.1 17.4-4.2 4.6-7.1 10-9.9 15.5-2.7 5.1-5.5 10.6-10 14.4-2.1 1.8-4.6 3-7.3 3.6-.5.1-.3.8.2.7 5.5-1.2 9.6-5.1 12.7-9.7 3.4-5 5.8-10.7 8.9-15.9 6.8-11.7 18.3-19.5 31.1-23.4 14.6-4.4 30-3.4 44.6.3 8.1 2 16 4.9 23.7 8 7.7 3.1 15.1 7 23 9.6 7 2.3 14.7 3.4 21.9 1.1 6.1-1.9 10.9-6.3 13.3-12.1 4.9-11.8.7-25.3-6.7-35.1-8-10.7-19.8-17.8-32.1-22.7-14.7-5.8-30.4-8.1-45.8-11.1-8.2-1.6-16.4-3.4-24.4-6.1-7.4-2.5-14.6-5.7-21.5-9.6-13.5-7.6-25.7-17.4-37.2-27.8-2.8-2.5-5.5-5.1-8.2-7.7-.1-.4-.7.2-.3.5z"/><path class="st1" d="M-9.3 171.4c9.4 7.9 19.7 14.7 30.5 20.5 10.8 5.8 22.1 10.7 33.6 14.9 11.7 4.3 23.6 7.8 35.7 10.9 12.2 3.1 25.2 5.4 36.1 12.3 4.7 3 9 6.8 12.1 11.5 2.9 4.4 5 9.9 4.6 15.3-.2 2.7-1.1 5.5-3.2 7.4-2.3 2.2-5.6 2.8-8.7 3-5.7.5-11.4-.3-16.8-1.9-11.3-3.3-21.5-9.4-32.3-14-5.5-2.3-11.1-4.2-17-5.3-6.2-1.1-12.6-1.3-18.8-.8-12.5 1-24.6 5-35.6 11-10.9 6-20.5 13.7-29 22.3-2.1 2.1-4.1 4.3-6.1 6.5-.3.4.2.9.5.5 8.2-9.2 17.5-17.7 27.9-24.4 10.7-6.9 22.6-12 35.1-14.2 12.7-2.2 25.7-1.2 37.9 3.3 11.1 4.1 21.3 10.3 32.5 14.3 5.3 1.9 10.8 3.3 16.4 3.6 5.2.2 12 0 15.5-4.5 3.2-4.2 2.8-10.1 1.3-14.9-1.6-5.1-4.7-9.6-8.4-13.4-8.8-8.7-20.9-12.5-32.6-15.5-12.3-3.1-24.5-6.2-36.5-10.1-11.9-3.9-23.7-8.5-35-13.9-11.1-5.4-21.8-11.7-31.8-19.1-2.5-1.9-4.9-3.8-7.3-5.8-.5-.3-1 .2-.6.5z"/><path class="st1" d="M-9.4 190.7c8.5 5.5 17.2 10.8 26.4 15.2 4.4 2.1 9 4 13.6 5.6 5.1 1.8 10.3 3.1 15.6 4.4 11.9 2.9 23.7 5.8 35.6 8.7 6 1.4 11.9 2.9 17.9 4.3 2.9.7 5.9 1.4 8.8 2.1 2.7.7 5.4 1.3 8 2.2 4 1.4 8.1 3.6 9.7 7.7 1.1 2.8.9 5.9-.7 8.5-1.7 2.7-4.6 4.1-7.8 4.2-5 0-9.3-3-13.2-5.7-8.4-5.7-17.7-9.7-27.7-11.8-9.9-2.1-20.2-2.4-30.3-1.1-10.4 1.3-20.5 4.3-30.2 8.3-9.8 4.1-19.1 9.4-28 15.4-2.2 1.5-4.3 3-6.4 4.5-.4.3 0 .9.4.6C-9 257.4.2 251.7 9.9 247c9.7-4.7 20-8.3 30.6-10.3 10.2-1.9 20.8-2.2 31.1-.7 10.2 1.5 20.1 4.9 28.8 10.3 4.4 2.7 8.5 6.4 13.6 7.7 3.2.8 6.7.5 9.4-1.5 2.3-1.7 3.7-4.4 3.9-7.3.2-3.2-1.2-6.3-3.5-8.5-3.6-3.4-8.8-4.7-13.6-5.9-6-1.5-12-2.9-18-4.4-12-2.9-24-5.8-36-8.8-5.8-1.4-11.7-2.7-17.5-4.3-5-1.4-9.9-3-14.6-4.9-9.4-3.8-18.2-8.7-26.8-14-2.3-1.4-4.5-2.8-6.7-4.3 0-.3-.4.4 0 .6z"/><path class="st1" d="M-14.1 233.5c7.8 4.3 17.1 5.8 25.9 4.2 3.9-.7 7.5-2.1 11.1-3.8 2.6-1.2 5.1-2.5 7.4-4.2 2-1.5 4.3-3.5 4.8-6.1.5-3.1-2-6-4.7-7.2-2-.9-4.1-1.3-6.2-1.7-2.3-.4-4.5-.8-6.8-1.1-4.7-.7-9.3-1.2-14-1.8-9.3-1.2-18.8-2.4-27.8-5.3-1-.3-2-.7-3.1-1.1-.4-.2-.6.5-.2.7 8.3 3.2 17.2 4.6 26 5.8 9 1.2 18.1 2 27 3.8 2 .4 4.2.8 5.9 2 1.3.9 2.5 2.3 2.9 3.8.7 2.5-1.1 4.8-2.9 6.4-2.1 1.9-4.7 3.3-7.2 4.5-3 1.5-6 2.9-9.3 3.8-8.4 2.3-17.7 1.7-25.7-1.9-1-.4-2-.9-2.9-1.5-.2-.2-.6.4-.2.7z"/><path class="st1" d="M-11.6 227.8c1.7.5 3.4 1.2 5.2 1.8 2.4.8 4.8 1.6 7.2 2.2 3.5.8 9 1.7 10.6-2.6.6-1.4.7-3.1-.1-4.5-.7-1.3-2-2.3-3.4-2.9-3.6-1.7-7.9-2-11.8-1.9-2 0-4.1.2-6.1.6-1.5.3-3.1.6-4.5 1.3-.3.1-.5.3-.7.4-.4.3 0 .9.4.6 1.1-.7 2.4-1.1 3.6-1.4 1.8-.4 3.6-.7 5.4-.8 3.9-.3 8-.1 11.7 1.1 2.6.9 5.6 2.7 5 5.9-.3 1.7-1.2 3.1-2.9 3.6-2 .6-4.2.3-6.2-.1-4.3-.8-8.3-2.5-12.4-3.9l-.9-.3c-.4.1-.6.8-.1.9zm-24.8 225.7c21.3 6.1 45.8 12.6 66.6 1.4 18.5-10 28.7-29.9 41.1-45.9 7.4-9.5 15.5-18.3 24-26.8 7.4-7.4 15.4-14.3 22.3-22.1 6.2-7 12-14.9 15.6-23.6 1.6-3.9 2.8-8 3-12.2.2-5.2-2.4-10-2.5-15.2-.2-6.1 4.5-9 9.5-10.9 4.3-1.6 8.3-3.1 12.1-5.7 7.3-4.9 15.6-13.4 25.3-10.2 8.8 2.9 12 13.7 12.5 22 .5 10.3-2.1 20.9-5.3 30.6-6.7 20.1-17.7 38.8-22.2 59.7-2.1 9.9-2.5 19.9-.7 29.9 1.8 9.8 5.7 19.3 11.1 27.7 5.4 8.3 12.4 15.5 20.7 20.9 9.5 6.3 20.3 10.2 31.1 13.8 19.8 6.6 42 13.3 54.6 31.3 2.8 4 4.9 8.4 6.1 13.1.1.5.8.3.7-.2-5.1-19.5-23.8-31.2-41.5-38-21.2-8.2-44.6-12.6-61.4-29.3-14.8-14.7-23.2-35.8-21.9-56.7 1.4-21.6 11.9-41.1 19.8-60.9 3.9-9.8 7.4-19.9 8.8-30.5 1.2-8.8 1.2-18.2-3.3-26.2-1.8-3.3-4.5-6.1-8-7.6-3.9-1.7-8.2-1.4-12 .2-4.3 1.7-7.9 4.7-11.6 7.4-4 2.9-8 5.3-12.7 7-3.7 1.3-8 2.6-10.6 5.8-3.3 4.2-1.8 9.5-.6 14.1 1.2 4.8 1.4 9.3.1 14.1-1.2 4.7-3.4 9.1-5.8 13.2-4.8 8.1-10.9 15.6-17.7 22.1-8.4 8.2-16.9 16.1-24.9 24.7-8 8.6-15.4 17.7-22.2 27.3-6.1 8.6-12 17.4-19.4 25-7.7 7.9-16.9 13.8-27.8 16.1-11.9 2.5-24.3.9-36-1.8-5.7-1.3-11.3-2.8-16.8-4.4-.3 0-.5.7-.1.8z"/><path class="st1" d="M-16.7 470.6c15.2 9.5 35.1 7.1 50.2-1.4 16.5-9.3 28.2-24.9 38.5-40.4 5.6-8.4 10.9-16.9 16.9-25 6.2-8.4 13.2-15.9 21.1-22.8 14-12.1 31.1-24.9 32.4-45 .6-8.8-1.8-18.8 2.8-26.8 4.4-7.9 14.6-10.4 22.8-12.2 4.8-1 10.3-1 13.4 3.4 2.3 3.3 2.6 7.6 2.3 11.4-.3 4.7-1.5 9.5-2.7 14-1.3 5-2.8 9.9-4.5 14.8-6.6 19.3-15.3 38.1-19.2 58.2-3.5 18-3.3 37.7 5.9 54.1 8.7 15.5 24.1 25.7 39.8 33.3 17.1 8.3 35.5 14.1 51.7 24.3 4 2.6 7.9 5.4 11.5 8.6.4.3.9-.2.5-.5-14.5-12.6-32.7-19.6-50.2-27-16.5-7-33.5-15.1-45.5-28.9a58.53 58.53 0 0 1-12.8-24.7c-2.3-9.3-2.6-19-1.6-28.5 2.1-20.3 10-39.3 17-58.3 3.6-9.9 7.1-19.8 9.4-30.1 1.5-6.7 3.4-15.9-1.5-21.8-2.7-3.2-6.9-4-10.9-3.4-4.3.6-8.8 1.9-12.9 3.3-3.7 1.3-7.4 3.1-10.2 5.9-2.9 2.9-4.6 6.8-5.2 10.8-1.5 9 .8 18.1-1.6 27-2.5 9.3-8.6 17.3-15.4 23.9-7.5 7.3-16.1 13.5-23.5 20.9-7.1 7-13.1 15.1-18.7 23.3-11 16.2-20.9 33.5-35.4 46.9C33.8 470.6 14.9 479.2-4 475c-4.4-1-8.5-2.7-12.3-5-.4-.3-.8.3-.4.6z"/><path class="st1" d="M-18.9 485c16.4 8.4 36.3 6.1 52.3-1.9 16.8-8.4 29.9-22.8 40.9-37.6 12.4-16.6 22.8-34.7 36.7-50.1 13.2-14.7 29.6-27.3 37.9-45.7 1.9-4.2 3.3-8.6 4.1-13.1.8-4.8.3-9.5.6-14.3.3-4.6 2.3-9.6 7.3-10.8 2.2-.5 4.4.1 5.8 2 1.3 1.8 1.6 4.1 1.6 6.2 0 4.7-.7 9.6-1.5 14.2-.8 4.7-1.9 9.4-3.2 14.1-2.5 9.4-5.7 18.5-8.7 27.7-5.8 17.8-11.3 36.4-9.5 55.4 1.6 17.3 9.2 33.9 21 46.6 11.4 12.2 26.4 19.2 41.4 25.8 14.4 6.3 29.6 12.4 41 23.5 2.8 2.7 5.2 5.6 7.4 8.8.3.4.9 0 .6-.4-8.8-13-22.6-20.8-36.5-27.2-14.6-6.7-30.1-12.2-43.1-21.8-14.5-10.7-25-26.8-29.3-44.3-4.6-18.8-.9-38 4.6-56.2 5.6-18.5 13-36.5 15.7-55.7.8-5.3 3.5-18.9-5.2-19.5-3.3-.2-6.6 2.2-8.2 5-2.3 4-1.8 9.1-1.8 13.6.1 20.7-14.2 37.1-27.9 50.9-7.3 7.4-14.6 14.6-21.1 22.7-6.4 8.1-12.2 16.6-18 25.1-11 16.2-22.4 32.6-37.8 45-14.9 12-34.4 19.6-53.7 16-4.5-.8-8.9-2.3-12.9-4.4-.5-.5-.9.1-.5.4z"/><path class="st1" d="M211.3 515.3a93.78 93.78 0 0 1-34.5-14c-10.6-7.1-19.8-16.3-26.6-27.1-7.4-11.7-12-25-13.6-38.7-.8-6.9-.8-13.6.7-20.4 1.5-6.6 3.8-12.9 5.8-19.3 1-3.2 1.9-6.4 2.5-9.6.5-2.6 1.2-5.8.5-8.5-.6-2.1-2.3-4.2-4.6-4.5-2.9-.4-5.1 2.2-6.9 4.1-9.3 10.1-15.9 22.3-23.6 33.5-8.6 12.5-16.6 25.3-25.5 37.6-7.9 11-16.5 21.6-26.7 30.6-10 8.9-21.4 16.3-34.2 20.3-12.8 4-26.8 4.9-39.7 1-3.1-.9-6.2-2.2-9.1-3.7-.4-.2-.8.4-.4.6 11.5 5.9 24.7 7.4 37.4 5.5 13.1-1.9 25.4-7.4 36.2-15 10.7-7.6 19.9-17 28.2-27.2 9.2-11.4 17.2-23.8 25.3-36 4.1-6.1 8.3-12.1 12.3-18.2 3.8-5.8 7.4-11.7 11.4-17.4 2.1-2.9 4.2-5.8 6.5-8.5 1.1-1.3 2.2-2.5 3.4-3.7 1.2-1.2 2.6-2.6 4.4-2.8 3.6-.3 5.1 3.7 4.9 6.6-.2 3.4-.9 6.7-1.7 9.9-1.7 6.5-4.1 12.8-5.9 19.2-1.9 6.4-2.9 12.9-2.6 19.6.7 13.4 4.2 26.7 10.4 38.7 5.9 11.3 14.1 21.3 24.1 29.2 9.6 7.6 20.6 13.4 32.4 16.8 3 .9 5.9 1.6 9 2.1.5.1.7-.6.2-.7z"/><path class="st1" d="M26.2 512.5c9.9-5.7 19.4-11.9 28.6-18.7 8.8-6.5 17.5-13.4 25.2-21.2 7.1-7.3 13.2-15.4 18.8-23.9 5.6-8.6 10.6-17.5 15.4-26.5 2.4-4.6 4.9-9.1 7.3-13.7 1.2-2.3 2.5-4.6 3.7-6.9.6-1.1 1.2-2.2 1.8-3.4.6-1 1.3-2.2 2.5-2.5 1.3-.4 2.4.6 3 1.7.6 1.2.5 2.6 0 3.8-.5 1.3-1.2 2.5-1.8 3.7-.6 1.1-1.1 2.3-1.6 3.4-1.9 4.4-3.2 9.1-4 13.8-1.5 9.7-.7 19.8 1.8 29.3 2.6 9.8 6.9 19.1 12.6 27.6 5.8 8.7 12.9 16.6 20.4 23.8 7.7 7.4 15.9 14.1 24.2 20.7 2 1.6 4.1 3.2 6.1 4.8.4.3.9-.2.5-.5-8.4-6.6-16.9-13.3-24.9-20.5-8-7.2-15.5-14.8-22-23.4-6.3-8.3-11.4-17.4-14.7-27.3-3.2-9.6-4.8-19.8-3.9-30 .4-5 1.4-9.9 3.1-14.6.9-2.4 1.9-4.7 3.1-7 1.1-2 2.6-4.4 2.1-6.8-.3-1.7-1.8-3.5-3.8-3.3-2.2.2-3.3 2.7-4.2 4.4-2.5 4.6-5 9.2-7.4 13.8-4.9 9.1-9.7 18.3-15 27.2-5.3 8.8-11.1 17.4-17.8 25.3-7.1 8.3-15.2 15.4-23.7 22.1-9.1 7.2-18.6 13.8-28.5 19.8-2.4 1.5-4.8 2.9-7.3 4.3-.4.3 0 .9.4.7z"/><path class="st1" d="M55.4 504.6c10.5-6.1 20.2-13.6 28.8-22.1 8.5-8.5 16-18.2 22-28.6 1.4-2.4 2.6-5.3 4.7-7.1 2.5-2 5.7-1 7.6 1.3 2.2 2.7 2.1 6.3 2.1 9.5s.2 6.4.8 9.6c1.2 6.3 3.7 12.4 7.3 17.7 3.5 5.2 8.1 9.7 12.6 14.1 4.5 4.5 9.1 9 12.3 14.6 3.1 5.2 5.2 11.4 4.5 17.5-.2 1.5-.5 2.9-1 4.3-.2.4.6.6.7.2 2.1-5.8 1.2-12.1-1.1-17.7-2.4-5.8-6.4-10.8-10.7-15.3-4.5-4.7-9.5-9.1-13.7-14.2-4.2-5.2-7.4-11.1-9.2-17.5-.9-3.2-1.4-6.5-1.6-9.8-.2-3.4.2-6.8-.7-10.1-.7-2.7-2.6-5.2-5.4-6-2.7-.8-5 .8-6.6 2.9-.8 1.1-1.5 2.4-2.2 3.6-.8 1.4-1.5 2.7-2.3 4-1.6 2.7-3.3 5.3-5.1 7.8-3.6 5.1-7.5 10-11.7 14.5-8.4 9.1-18 17.1-28.6 23.7l-3.9 2.4c-.4.3 0 .9.4.7z"/><path class="st1" d="M139.8 514.2c-7.7-3.9-14.1-10.2-18.4-17.6-4.4-7.5-6.6-16-6.3-24.7.1-2 .1-4.3-1.4-5.9-1.3-1.4-3.3-1.5-5.1-1-4.4 1.3-5.6 6.4-7.3 10-3.6 7.9-8.9 14.9-15.3 20.7-6.4 5.8-14.1 10.3-22.3 13l-3 .9c-.5.1-.3.8.2.7 8.2-2.2 15.8-6.2 22.5-11.5 6.7-5.3 12.3-11.9 16.4-19.3 1-1.9 2-3.8 2.8-5.7.9-2.1 1.6-4.3 3.1-6.1 1.3-1.6 3.4-2.7 5.5-2.3 2.5.5 3.1 2.9 3.1 5.1 0 2.2-.1 4.3.1 6.5.2 2.1.5 4.1.9 6.2.9 4.1 2.4 8 4.3 11.7 3.9 7.5 9.8 13.9 17 18.3.9.5 1.8 1.1 2.8 1.5.5.4.9-.3.4-.5z"/><path class="st1" d="M119.7 517.6c-2.3-6.8-4.5-13.6-6.8-20.4-.6-1.7-1.2-3.5-1.7-5.2-.3-.8-.5-1.6-.8-2.4-.1-.4-.3-.8-.4-1.2-.1-.4-.2-1-.4-1.3-.3-.4-1-.5-1.4-.6-.6-.1-1.2 0-1.7.2-1.1.4-2.1 1.1-2.9 2-1.9 2.1-2.2 5-3.5 7.4-1.4 2.6-3.8 3.7-6.5 4.5-2.5.7-5 1.2-7.3 2.5-2 1.2-3.7 2.8-5.1 4.7-3.4 4.5-5 10.2-6.3 15.6-.1.5.6.7.7.2 1.2-4.7 2.6-9.5 5.1-13.7 1.2-2 2.7-3.8 4.6-5.2 2-1.5 4.3-2.2 6.7-2.8 2.4-.6 4.9-1.2 6.8-2.7 2.1-1.7 2.8-4.4 3.7-6.8.9-2.2 2.7-5 5.5-4.9.3 0 .6.1.9.2.4.2.4.5.5.9.3.8.5 1.7.8 2.5.5 1.6 1.1 3.2 1.6 4.9 2.4 7.4 4.9 14.7 7.3 22.1 0 .2.7 0 .6-.5z"/></g></svg>